<svg width="1200" height="800" viewBox="0 0 1200 800" fill="none" xmlns="http://www.w3.org/2000/svg">
<g clip-path="url(#clip0)">
<rect width="1200" height="800" fill="#4DB6AC"/>
<ellipse cx="413.5" cy="311" rx="84.5" ry="84" fill="#C4C4C4"/>
<path d="M104.25 163V111.812H122.18C128.391 111.812 133.102 113.008 136.312 115.398C139.523 117.766 141.129 121.246 141.129 125.84C141.129 128.348 140.484 130.562 139.195 132.484C137.906 134.383 136.113 135.777 133.816 136.668C136.441 137.324 138.504 138.648 140.004 140.641C141.527 142.633 142.289 145.07 142.289 147.953C142.289 152.875 140.719 156.602 137.578 159.133C134.438 161.664 129.961 162.953 124.148 163H104.25ZM114.797 140.711V154.527H123.832C126.316 154.527 128.25 153.941 129.633 152.77C131.039 151.574 131.742 149.934 131.742 147.848C131.742 143.16 129.316 140.781 124.465 140.711H114.797ZM114.797 133.258H122.602C127.922 133.164 130.582 131.043 130.582 126.895C130.582 124.574 129.902 122.91 128.543 121.902C127.207 120.871 125.086 120.355 122.18 120.355H114.797V133.258ZM167.074 163.703C161.496 163.703 156.949 161.992 153.434 158.57C149.941 155.148 148.195 150.59 148.195 144.895V143.91C148.195 140.09 148.934 136.68 150.41 133.68C151.887 130.656 153.973 128.336 156.668 126.719C159.387 125.078 162.48 124.258 165.949 124.258C171.152 124.258 175.242 125.898 178.219 129.18C181.219 132.461 182.719 137.113 182.719 143.137V147.285H158.496C158.824 149.77 159.809 151.762 161.449 153.262C163.113 154.762 165.211 155.512 167.742 155.512C171.656 155.512 174.715 154.094 176.918 151.258L181.91 156.848C180.387 159.004 178.324 160.691 175.723 161.91C173.121 163.105 170.238 163.703 167.074 163.703ZM165.914 132.484C163.898 132.484 162.258 133.164 160.992 134.523C159.75 135.883 158.953 137.828 158.602 140.359H172.734V139.551C172.688 137.301 172.078 135.566 170.906 134.348C169.734 133.105 168.07 132.484 165.914 132.484ZM210.562 163C210.094 162.086 209.754 160.949 209.543 159.59C207.082 162.332 203.883 163.703 199.945 163.703C196.219 163.703 193.125 162.625 190.664 160.469C188.227 158.312 187.008 155.594 187.008 152.312C187.008 148.281 188.496 145.188 191.473 143.031C194.473 140.875 198.797 139.785 204.445 139.762H209.121V137.582C209.121 135.824 208.664 134.418 207.75 133.363C206.859 132.309 205.441 131.781 203.496 131.781C201.785 131.781 200.438 132.191 199.453 133.012C198.492 133.832 198.012 134.957 198.012 136.387H187.852C187.852 134.184 188.531 132.145 189.891 130.27C191.25 128.395 193.172 126.93 195.656 125.875C198.141 124.797 200.93 124.258 204.023 124.258C208.711 124.258 212.426 125.441 215.168 127.809C217.934 130.152 219.316 133.457 219.316 137.723V154.211C219.34 157.82 219.844 160.551 220.828 162.402V163H210.562ZM202.16 155.934C203.66 155.934 205.043 155.605 206.309 154.949C207.574 154.27 208.512 153.367 209.121 152.242V145.703H205.324C200.238 145.703 197.531 147.461 197.203 150.977L197.168 151.574C197.168 152.84 197.613 153.883 198.504 154.703C199.395 155.523 200.613 155.934 202.16 155.934ZM247.723 152.488C247.723 151.246 247.102 150.273 245.859 149.57C244.641 148.844 242.672 148.199 239.953 147.637C230.906 145.738 226.383 141.895 226.383 136.105C226.383 132.73 227.777 129.918 230.566 127.668C233.379 125.395 237.047 124.258 241.57 124.258C246.398 124.258 250.254 125.395 253.137 127.668C256.043 129.941 257.496 132.895 257.496 136.527H247.336C247.336 135.074 246.867 133.879 245.93 132.941C244.992 131.98 243.527 131.5 241.535 131.5C239.824 131.5 238.5 131.887 237.562 132.66C236.625 133.434 236.156 134.418 236.156 135.613C236.156 136.738 236.684 137.652 237.738 138.355C238.816 139.035 240.621 139.633 243.152 140.148C245.684 140.641 247.816 141.203 249.551 141.836C254.918 143.805 257.602 147.215 257.602 152.066C257.602 155.535 256.113 158.348 253.137 160.504C250.16 162.637 246.316 163.703 241.605 163.703C238.418 163.703 235.582 163.141 233.098 162.016C230.637 160.867 228.703 159.309 227.297 157.34C225.891 155.348 225.188 153.203 225.188 150.906H234.82C234.914 152.711 235.582 154.094 236.824 155.055C238.066 156.016 239.73 156.496 241.816 156.496C243.762 156.496 245.227 156.133 246.211 155.406C247.219 154.656 247.723 153.684 247.723 152.488ZM274.898 163H264.703V124.961H274.898V163ZM264.105 115.117C264.105 113.594 264.609 112.34 265.617 111.355C266.648 110.371 268.043 109.879 269.801 109.879C271.535 109.879 272.918 110.371 273.949 111.355C274.98 112.34 275.496 113.594 275.496 115.117C275.496 116.664 274.969 117.93 273.914 118.914C272.883 119.898 271.512 120.391 269.801 120.391C268.09 120.391 266.707 119.898 265.652 118.914C264.621 117.93 264.105 116.664 264.105 115.117ZM303.902 152.488C303.902 151.246 303.281 150.273 302.039 149.57C300.82 148.844 298.852 148.199 296.133 147.637C287.086 145.738 282.562 141.895 282.562 136.105C282.562 132.73 283.957 129.918 286.746 127.668C289.559 125.395 293.227 124.258 297.75 124.258C302.578 124.258 306.434 125.395 309.316 127.668C312.223 129.941 313.676 132.895 313.676 136.527H303.516C303.516 135.074 303.047 133.879 302.109 132.941C301.172 131.98 299.707 131.5 297.715 131.5C296.004 131.5 294.68 131.887 293.742 132.66C292.805 133.434 292.336 134.418 292.336 135.613C292.336 136.738 292.863 137.652 293.918 138.355C294.996 139.035 296.801 139.633 299.332 140.148C301.863 140.641 303.996 141.203 305.73 141.836C311.098 143.805 313.781 147.215 313.781 152.066C313.781 155.535 312.293 158.348 309.316 160.504C306.34 162.637 302.496 163.703 297.785 163.703C294.598 163.703 291.762 163.141 289.277 162.016C286.816 160.867 284.883 159.309 283.477 157.34C282.07 155.348 281.367 153.203 281.367 150.906H291C291.094 152.711 291.762 154.094 293.004 155.055C294.246 156.016 295.91 156.496 297.996 156.496C299.941 156.496 301.406 156.133 302.391 155.406C303.398 154.656 303.902 153.684 303.902 152.488ZM353.438 149.184L358.43 124.961H368.238L358.535 163H350.027L342.82 139.059L335.613 163H327.141L317.438 124.961H327.246L332.203 149.148L339.164 124.961H346.512L353.438 149.184ZM395.344 163C394.875 162.086 394.535 160.949 394.324 159.59C391.863 162.332 388.664 163.703 384.727 163.703C381 163.703 377.906 162.625 375.445 160.469C373.008 158.312 371.789 155.594 371.789 152.312C371.789 148.281 373.277 145.188 376.254 143.031C379.254 140.875 383.578 139.785 389.227 139.762H393.902V137.582C393.902 135.824 393.445 134.418 392.531 133.363C391.641 132.309 390.223 131.781 388.277 131.781C386.566 131.781 385.219 132.191 384.234 133.012C383.273 133.832 382.793 134.957 382.793 136.387H372.633C372.633 134.184 373.312 132.145 374.672 130.27C376.031 128.395 377.953 126.93 380.438 125.875C382.922 124.797 385.711 124.258 388.805 124.258C393.492 124.258 397.207 125.441 399.949 127.809C402.715 130.152 404.098 133.457 404.098 137.723V154.211C404.121 157.82 404.625 160.551 405.609 162.402V163H395.344ZM386.941 155.934C388.441 155.934 389.824 155.605 391.09 154.949C392.355 154.27 393.293 153.367 393.902 152.242V145.703H390.105C385.02 145.703 382.312 147.461 381.984 150.977L381.949 151.574C381.949 152.84 382.395 153.883 383.285 154.703C384.176 155.523 385.395 155.934 386.941 155.934ZM274.617 236.453H256.125L252.609 247H241.395L260.449 195.812H270.223L289.383 247H278.168L274.617 236.453ZM258.973 227.91H271.77L265.336 208.75L258.973 227.91ZM301.336 208.961L301.652 213.215C304.348 209.91 307.992 208.258 312.586 208.258C317.484 208.258 320.848 210.191 322.676 214.059C325.348 210.191 329.156 208.258 334.102 208.258C338.227 208.258 341.297 209.465 343.312 211.879C345.328 214.27 346.336 217.879 346.336 222.707V247H336.141V222.742C336.141 220.586 335.719 219.016 334.875 218.031C334.031 217.023 332.543 216.52 330.41 216.52C327.363 216.52 325.254 217.973 324.082 220.879L324.117 247H313.957V222.777C313.957 220.574 313.523 218.98 312.656 217.996C311.789 217.012 310.312 216.52 308.227 216.52C305.344 216.52 303.258 217.715 301.969 220.105V247H291.809V208.961H301.336ZM376.219 247C375.75 246.086 375.41 244.949 375.199 243.59C372.738 246.332 369.539 247.703 365.602 247.703C361.875 247.703 358.781 246.625 356.32 244.469C353.883 242.312 352.664 239.594 352.664 236.312C352.664 232.281 354.152 229.188 357.129 227.031C360.129 224.875 364.453 223.785 370.102 223.762H374.777V221.582C374.777 219.824 374.32 218.418 373.406 217.363C372.516 216.309 371.098 215.781 369.152 215.781C367.441 215.781 366.094 216.191 365.109 217.012C364.148 217.832 363.668 218.957 363.668 220.387H353.508C353.508 218.184 354.188 216.145 355.547 214.27C356.906 212.395 358.828 210.93 361.312 209.875C363.797 208.797 366.586 208.258 369.68 208.258C374.367 208.258 378.082 209.441 380.824 211.809C383.59 214.152 384.973 217.457 384.973 221.723V238.211C384.996 241.82 385.5 244.551 386.484 246.402V247H376.219ZM367.816 239.934C369.316 239.934 370.699 239.605 371.965 238.949C373.23 238.27 374.168 237.367 374.777 236.242V229.703H370.98C365.895 229.703 363.188 231.461 362.859 234.977L362.824 235.574C362.824 236.84 363.27 237.883 364.16 238.703C365.051 239.523 366.27 239.934 367.816 239.934ZM403.5 247H393.305V193H403.5V247ZM170.168 317.57C170.168 315.578 169.465 314.055 168.059 313C166.652 311.922 164.121 310.797 160.465 309.625C156.809 308.43 153.914 307.258 151.781 306.109C145.969 302.969 143.062 298.738 143.062 293.418C143.062 290.652 143.836 288.191 145.383 286.035C146.953 283.855 149.191 282.156 152.098 280.938C155.027 279.719 158.309 279.109 161.941 279.109C165.598 279.109 168.855 279.777 171.715 281.113C174.574 282.426 176.789 284.289 178.359 286.703C179.953 289.117 180.75 291.859 180.75 294.93H170.203C170.203 292.586 169.465 290.77 167.988 289.48C166.512 288.168 164.438 287.512 161.766 287.512C159.188 287.512 157.184 288.062 155.754 289.164C154.324 290.242 153.609 291.672 153.609 293.453C153.609 295.117 154.441 296.512 156.105 297.637C157.793 298.762 160.266 299.816 163.523 300.801C169.523 302.605 173.895 304.844 176.637 307.516C179.379 310.188 180.75 313.516 180.75 317.5C180.75 321.93 179.074 325.41 175.723 327.941C172.371 330.449 167.859 331.703 162.188 331.703C158.25 331.703 154.664 330.988 151.43 329.559C148.195 328.105 145.723 326.125 144.012 323.617C142.324 321.109 141.48 318.203 141.48 314.898H152.062C152.062 320.547 155.438 323.371 162.188 323.371C164.695 323.371 166.652 322.867 168.059 321.859C169.465 320.828 170.168 319.398 170.168 317.57ZM185.672 311.629C185.672 307.855 186.398 304.492 187.852 301.539C189.305 298.586 191.391 296.301 194.109 294.684C196.852 293.066 200.027 292.258 203.637 292.258C208.77 292.258 212.953 293.828 216.188 296.969C219.445 300.109 221.262 304.375 221.637 309.766L221.707 312.367C221.707 318.203 220.078 322.891 216.82 326.43C213.562 329.945 209.191 331.703 203.707 331.703C198.223 331.703 193.84 329.945 190.559 326.43C187.301 322.914 185.672 318.133 185.672 312.086V311.629ZM195.832 312.367C195.832 315.977 196.512 318.742 197.871 320.664C199.23 322.562 201.176 323.512 203.707 323.512C206.168 323.512 208.09 322.574 209.473 320.699C210.855 318.801 211.547 315.777 211.547 311.629C211.547 308.09 210.855 305.348 209.473 303.402C208.09 301.457 206.145 300.484 203.637 300.484C201.152 300.484 199.23 301.457 197.871 303.402C196.512 305.324 195.832 308.312 195.832 312.367ZM238.688 331H228.492V277H238.688V331ZM269.871 327.133C267.363 330.18 263.895 331.703 259.465 331.703C255.387 331.703 252.27 330.531 250.113 328.188C247.98 325.844 246.891 322.41 246.844 317.887V292.961H257.004V317.535C257.004 321.496 258.809 323.477 262.418 323.477C265.863 323.477 268.23 322.281 269.52 319.891V292.961H279.715V331H270.152L269.871 327.133ZM299.543 283.609V292.961H306.047V300.414H299.543V319.398C299.543 320.805 299.812 321.812 300.352 322.422C300.891 323.031 301.922 323.336 303.445 323.336C304.57 323.336 305.566 323.254 306.434 323.09V330.789C304.441 331.398 302.391 331.703 300.281 331.703C293.156 331.703 289.523 328.105 289.383 320.91V300.414H283.828V292.961H289.383V283.609H299.543ZM322.43 331H312.234V292.961H322.43V331ZM311.637 283.117C311.637 281.594 312.141 280.34 313.148 279.355C314.18 278.371 315.574 277.879 317.332 277.879C319.066 277.879 320.449 278.371 321.48 279.355C322.512 280.34 323.027 281.594 323.027 283.117C323.027 284.664 322.5 285.93 321.445 286.914C320.414 287.898 319.043 288.391 317.332 288.391C315.621 288.391 314.238 287.898 313.184 286.914C312.152 285.93 311.637 284.664 311.637 283.117ZM329.25 311.629C329.25 307.855 329.977 304.492 331.43 301.539C332.883 298.586 334.969 296.301 337.688 294.684C340.43 293.066 343.605 292.258 347.215 292.258C352.348 292.258 356.531 293.828 359.766 296.969C363.023 300.109 364.84 304.375 365.215 309.766L365.285 312.367C365.285 318.203 363.656 322.891 360.398 326.43C357.141 329.945 352.77 331.703 347.285 331.703C341.801 331.703 337.418 329.945 334.137 326.43C330.879 322.914 329.25 318.133 329.25 312.086V311.629ZM339.41 312.367C339.41 315.977 340.09 318.742 341.449 320.664C342.809 322.562 344.754 323.512 347.285 323.512C349.746 323.512 351.668 322.574 353.051 320.699C354.434 318.801 355.125 315.777 355.125 311.629C355.125 308.09 354.434 305.348 353.051 303.402C351.668 301.457 349.723 300.484 347.215 300.484C344.73 300.484 342.809 301.457 341.449 303.402C340.09 305.324 339.41 308.312 339.41 312.367ZM380.895 292.961L381.211 297.355C383.93 293.957 387.574 292.258 392.145 292.258C396.176 292.258 399.176 293.441 401.145 295.809C403.113 298.176 404.121 301.715 404.168 306.426V331H394.008V306.672C394.008 304.516 393.539 302.957 392.602 301.996C391.664 301.012 390.105 300.52 387.926 300.52C385.066 300.52 382.922 301.738 381.492 304.176V331H371.332V292.961H380.895Z" fill="#F4ECEC"/>
<g opacity="0.5" filter="url(#filter0_d)">
<rect x="983" y="569" width="202" height="71" fill="#7EF2CF"/>
</g>
<g opacity="0.5" filter="url(#filter1_d)">
<rect x="692" y="569" width="202" height="71" fill="#7EF2CF"/>
</g>
<g opacity="0.5" filter="url(#filter2_d)">
<rect x="396" y="568" width="202" height="71" fill="#7EF2CF"/>
</g>
<path d="M565.061 312.061C565.646 311.475 565.646 310.525 565.061 309.939L555.515 300.393C554.929 299.808 553.979 299.808 553.393 300.393C552.808 300.979 552.808 301.929 553.393 302.515L561.879 311L553.393 319.485C552.808 320.071 552.808 321.021 553.393 321.607C553.979 322.192 554.929 322.192 555.515 321.607L565.061 312.061ZM524 312.5L564 312.5L564 309.5L524 309.5L524 312.5Z" fill="#6F6E6E" fill-opacity="0.2"/>
<path d="M1083.18 541.066C1083.77 541.649 1084.72 541.643 1085.3 541.054L1094.79 531.452C1095.37 530.863 1095.37 529.913 1094.78 529.331C1094.19 528.748 1093.24 528.754 1092.66 529.343L1084.22 537.878L1075.69 529.443C1075.1 528.86 1074.15 528.866 1073.57 529.455C1072.98 530.044 1072.99 530.994 1073.58 531.576L1083.18 541.066ZM1082.5 500.009L1082.73 540.008L1085.73 539.991L1085.5 499.991L1082.5 500.009Z" fill="#6F6E6E" fill-opacity="0.2"/>
<path d="M914.939 603.939C914.354 604.525 914.354 605.475 914.939 606.061L924.485 615.607C925.071 616.192 926.021 616.192 926.607 615.607C927.192 615.021 927.192 614.071 926.607 613.485L918.121 605L926.607 596.515C927.192 595.929 927.192 594.979 926.607 594.393C926.021 593.808 925.071 593.808 924.485 594.393L914.939 603.939ZM956 603.5H916V606.5H956V603.5Z" fill="#6F6E6E" fill-opacity="0.2"/>
<path d="M623.929 606.05C623.349 605.459 623.358 604.509 623.95 603.929L633.587 594.476C634.179 593.896 635.128 593.905 635.708 594.496C636.289 595.088 636.279 596.037 635.688 596.617L627.121 605.02L635.524 613.587C636.104 614.179 636.095 615.128 635.504 615.708C634.912 616.289 633.963 616.279 633.383 615.688L623.929 606.05ZM664.984 606.886L624.986 606.5L625.014 603.5L665.013 603.886L664.984 606.886Z" fill="#6F6E6E" fill-opacity="0.2"/>
<path d="M327.929 608.05C327.349 607.459 327.358 606.509 327.95 605.929L337.587 596.476C338.179 595.896 339.128 595.905 339.708 596.496C340.289 597.088 340.279 598.037 339.688 598.617L331.121 607.02L339.524 615.587C340.104 616.179 340.095 617.128 339.504 617.708C338.912 618.289 337.963 618.279 337.383 617.688L327.929 608.05ZM368.984 608.886L328.986 608.5L329.014 605.5L369.013 605.886L368.984 608.886Z" fill="#6F6E6E" fill-opacity="0.2"/>
<path d="M68.5034 546.413C-8.12532 483.423 -44.5899 490.676 -53.2436 502.176L-96.4613 787.421L1157.59 1035.07L1202.34 886.601C1191.52 894.571 1162.07 915.394 1130.79 934.929C1091.69 959.347 1019.11 921.042 944.027 885.898C868.945 850.754 770.642 835.355 613.137 846.89C455.632 858.426 369.613 761.952 276.044 721.984C182.476 682.016 164.289 625.15 68.5034 546.413Z" fill="#A6ECD7"/>
<g opacity="0.5" filter="url(#filter3_d)">
<rect x="100" y="570" width="202" height="71" fill="#7EF2CF"/>
</g>
<g filter="url(#filter4_d)">
<rect x="391" y="766" width="508" height="34" fill="#F9ABAB"/>
</g>
<path d="M1050.77 600H1048.22V586.5H1050.77V600ZM1052.48 595.157C1052.48 594.214 1052.66 593.373 1053.02 592.635C1053.39 591.896 1053.91 591.325 1054.59 590.921C1055.27 590.517 1056.07 590.314 1056.97 590.314C1058.25 590.314 1059.3 590.707 1060.11 591.492C1060.92 592.277 1061.38 593.344 1061.47 594.691L1061.49 595.342C1061.49 596.801 1061.08 597.973 1060.26 598.857C1059.45 599.736 1058.36 600.176 1056.99 600.176C1055.62 600.176 1054.52 599.736 1053.7 598.857C1052.88 597.979 1052.48 596.783 1052.48 595.271V595.157ZM1055.02 595.342C1055.02 596.244 1055.19 596.936 1055.53 597.416C1055.87 597.891 1056.35 598.128 1056.99 598.128C1057.6 598.128 1058.08 597.894 1058.43 597.425C1058.77 596.95 1058.95 596.194 1058.95 595.157C1058.95 594.272 1058.77 593.587 1058.43 593.101C1058.08 592.614 1057.6 592.371 1056.97 592.371C1056.35 592.371 1055.87 592.614 1055.53 593.101C1055.19 593.581 1055.02 594.328 1055.02 595.342ZM1062.68 595.175C1062.68 593.716 1063.03 592.541 1063.72 591.65C1064.42 590.76 1065.35 590.314 1066.53 590.314C1067.57 590.314 1068.39 590.672 1068.97 591.387L1069.07 590.49H1071.37V599.684C1071.37 600.516 1071.18 601.239 1070.8 601.854C1070.43 602.47 1069.9 602.938 1069.21 603.261C1068.53 603.583 1067.72 603.744 1066.8 603.744C1066.11 603.744 1065.43 603.604 1064.76 603.322C1064.1 603.047 1063.6 602.689 1063.26 602.25L1064.39 600.703C1065.02 601.412 1065.79 601.767 1066.69 601.767C1067.36 601.767 1067.89 601.585 1068.26 601.222C1068.64 600.864 1068.83 600.354 1068.83 599.692V599.183C1068.24 599.845 1067.47 600.176 1066.51 600.176C1065.37 600.176 1064.45 599.73 1063.74 598.84C1063.03 597.943 1062.68 596.757 1062.68 595.28V595.175ZM1065.22 595.359C1065.22 596.221 1065.39 596.897 1065.74 597.39C1066.09 597.876 1066.56 598.119 1067.16 598.119C1067.94 598.119 1068.49 597.829 1068.83 597.249V593.25C1068.49 592.67 1067.94 592.38 1067.18 592.38C1066.57 592.38 1066.09 592.629 1065.74 593.127C1065.39 593.625 1065.22 594.369 1065.22 595.359ZM1076.01 600H1073.47V590.49H1076.01V600ZM1073.32 588.029C1073.32 587.648 1073.44 587.335 1073.69 587.089C1073.95 586.843 1074.3 586.72 1074.74 586.72C1075.17 586.72 1075.52 586.843 1075.78 587.089C1076.04 587.335 1076.16 587.648 1076.16 588.029C1076.16 588.416 1076.03 588.732 1075.77 588.979C1075.51 589.225 1075.17 589.348 1074.74 589.348C1074.31 589.348 1073.97 589.225 1073.7 588.979C1073.45 588.732 1073.32 588.416 1073.32 588.029ZM1080.45 590.49L1080.53 591.589C1081.21 590.739 1082.12 590.314 1083.27 590.314C1084.27 590.314 1085.02 590.61 1085.52 591.202C1086.01 591.794 1086.26 592.679 1086.27 593.856V600H1083.73V593.918C1083.73 593.379 1083.61 592.989 1083.38 592.749C1083.15 592.503 1082.76 592.38 1082.21 592.38C1081.5 592.38 1080.96 592.685 1080.6 593.294V600H1078.06V590.49H1080.45ZM1100.96 596.546L1102.21 590.49H1104.66L1102.23 600H1100.11L1098.3 594.015L1096.5 600H1094.38L1091.96 590.49H1094.41L1095.65 596.537L1097.39 590.49H1099.23L1100.96 596.546ZM1108.6 600H1106.06V590.49H1108.6V600ZM1105.91 588.029C1105.91 587.648 1106.03 587.335 1106.28 587.089C1106.54 586.843 1106.89 586.72 1107.33 586.72C1107.76 586.72 1108.11 586.843 1108.37 587.089C1108.62 587.335 1108.75 587.648 1108.75 588.029C1108.75 588.416 1108.62 588.732 1108.36 588.979C1108.1 589.225 1107.76 589.348 1107.33 589.348C1106.9 589.348 1106.56 589.225 1106.29 588.979C1106.04 588.732 1105.91 588.416 1105.91 588.029ZM1113.75 588.152V590.49H1115.37V592.354H1113.75V597.1C1113.75 597.451 1113.81 597.703 1113.95 597.855C1114.08 598.008 1114.34 598.084 1114.72 598.084C1115 598.084 1115.25 598.063 1115.47 598.022V599.947C1114.97 600.1 1114.46 600.176 1113.93 600.176C1112.15 600.176 1111.24 599.276 1111.21 597.478V592.354H1109.82V590.49H1111.21V588.152H1113.75ZM1119.27 591.527C1119.94 590.719 1120.79 590.314 1121.81 590.314C1123.87 590.314 1124.91 591.513 1124.94 593.909V600H1122.4V593.979C1122.4 593.435 1122.29 593.033 1122.05 592.775C1121.82 592.512 1121.43 592.38 1120.88 592.38C1120.14 592.38 1119.6 592.667 1119.27 593.241V600H1116.73V586.5H1119.27V591.527ZM1059.39 616.175C1059.39 614.716 1059.73 613.541 1060.42 612.65C1061.12 611.76 1062.06 611.314 1063.24 611.314C1064.28 611.314 1065.09 611.672 1065.67 612.387L1065.78 611.49H1068.08V620.684C1068.08 621.516 1067.89 622.239 1067.51 622.854C1067.13 623.47 1066.6 623.938 1065.92 624.261C1065.23 624.583 1064.43 624.744 1063.51 624.744C1062.81 624.744 1062.13 624.604 1061.47 624.322C1060.81 624.047 1060.31 623.689 1059.97 623.25L1061.09 621.703C1061.72 622.412 1062.49 622.767 1063.39 622.767C1064.07 622.767 1064.59 622.585 1064.97 622.222C1065.34 621.864 1065.53 621.354 1065.53 620.692V620.183C1064.94 620.845 1064.17 621.176 1063.22 621.176C1062.08 621.176 1061.15 620.73 1060.44 619.84C1059.74 618.943 1059.39 617.757 1059.39 616.28V616.175ZM1061.93 616.359C1061.93 617.221 1062.1 617.897 1062.44 618.39C1062.79 618.876 1063.26 619.119 1063.87 619.119C1064.64 619.119 1065.2 618.829 1065.53 618.249V614.25C1065.19 613.67 1064.64 613.38 1063.89 613.38C1063.28 613.38 1062.8 613.629 1062.44 614.127C1062.1 614.625 1061.93 615.369 1061.93 616.359ZM1069.64 616.157C1069.64 615.214 1069.82 614.373 1070.19 613.635C1070.55 612.896 1071.07 612.325 1071.75 611.921C1072.44 611.517 1073.23 611.314 1074.13 611.314C1075.42 611.314 1076.46 611.707 1077.27 612.492C1078.09 613.277 1078.54 614.344 1078.63 615.691L1078.65 616.342C1078.65 617.801 1078.24 618.973 1077.43 619.857C1076.62 620.736 1075.52 621.176 1074.15 621.176C1072.78 621.176 1071.68 620.736 1070.86 619.857C1070.05 618.979 1069.64 617.783 1069.64 616.271V616.157ZM1072.18 616.342C1072.18 617.244 1072.35 617.936 1072.69 618.416C1073.03 618.891 1073.52 619.128 1074.15 619.128C1074.77 619.128 1075.25 618.894 1075.59 618.425C1075.94 617.95 1076.11 617.194 1076.11 616.157C1076.11 615.272 1075.94 614.587 1075.59 614.101C1075.25 613.614 1074.76 613.371 1074.13 613.371C1073.51 613.371 1073.03 613.614 1072.69 614.101C1072.35 614.581 1072.18 615.328 1072.18 616.342ZM1079.82 616.157C1079.82 615.214 1080 614.373 1080.37 613.635C1080.73 612.896 1081.25 612.325 1081.93 611.921C1082.62 611.517 1083.41 611.314 1084.31 611.314C1085.59 611.314 1086.64 611.707 1087.45 612.492C1088.26 613.277 1088.72 614.344 1088.81 615.691L1088.83 616.342C1088.83 617.801 1088.42 618.973 1087.61 619.857C1086.79 620.736 1085.7 621.176 1084.33 621.176C1082.96 621.176 1081.86 620.736 1081.04 619.857C1080.23 618.979 1079.82 617.783 1079.82 616.271V616.157ZM1082.36 616.342C1082.36 617.244 1082.53 617.936 1082.87 618.416C1083.21 618.891 1083.7 619.128 1084.33 619.128C1084.94 619.128 1085.42 618.894 1085.77 618.425C1086.12 617.95 1086.29 617.194 1086.29 616.157C1086.29 615.272 1086.12 614.587 1085.77 614.101C1085.42 613.614 1084.94 613.371 1084.31 613.371C1083.69 613.371 1083.21 613.614 1082.87 614.101C1082.53 614.581 1082.36 615.328 1082.36 616.342ZM1090.02 616.175C1090.02 614.716 1090.37 613.541 1091.06 612.65C1091.76 611.76 1092.7 611.314 1093.87 611.314C1094.92 611.314 1095.73 611.672 1096.31 612.387L1096.41 611.49H1098.72V620.684C1098.72 621.516 1098.53 622.239 1098.15 622.854C1097.77 623.47 1097.24 623.938 1096.55 624.261C1095.87 624.583 1095.07 624.744 1094.15 624.744C1093.45 624.744 1092.77 624.604 1092.11 624.322C1091.45 624.047 1090.94 623.689 1090.6 623.25L1091.73 621.703C1092.36 622.412 1093.13 622.767 1094.03 622.767C1094.71 622.767 1095.23 622.585 1095.61 622.222C1095.98 621.864 1096.17 621.354 1096.17 620.692V620.183C1095.58 620.845 1094.81 621.176 1093.86 621.176C1092.71 621.176 1091.79 620.73 1091.08 619.84C1090.38 618.943 1090.02 617.757 1090.02 616.28V616.175ZM1092.56 616.359C1092.56 617.221 1092.74 617.897 1093.08 618.39C1093.43 618.876 1093.9 619.119 1094.51 619.119C1095.28 619.119 1095.83 618.829 1096.17 618.249V614.25C1095.83 613.67 1095.28 613.38 1094.52 613.38C1093.92 613.38 1093.43 613.629 1093.08 614.127C1092.74 614.625 1092.56 615.369 1092.56 616.359ZM1103.36 621H1100.81V607.5H1103.36V621ZM1109.83 621.176C1108.44 621.176 1107.3 620.748 1106.42 619.893C1105.55 619.037 1105.12 617.897 1105.12 616.474V616.228C1105.12 615.272 1105.3 614.42 1105.67 613.67C1106.04 612.914 1106.56 612.334 1107.23 611.93C1107.91 611.52 1108.69 611.314 1109.55 611.314C1110.85 611.314 1111.88 611.725 1112.62 612.545C1113.37 613.365 1113.75 614.528 1113.75 616.034V617.071H1107.69C1107.77 617.692 1108.02 618.19 1108.43 618.565C1108.84 618.94 1109.37 619.128 1110 619.128C1110.98 619.128 1111.75 618.773 1112.3 618.064L1113.54 619.462C1113.16 620.001 1112.65 620.423 1112 620.728C1111.35 621.026 1110.63 621.176 1109.83 621.176ZM1109.54 613.371C1109.04 613.371 1108.63 613.541 1108.31 613.881C1108 614.221 1107.8 614.707 1107.72 615.34H1111.25V615.138C1111.24 614.575 1111.09 614.142 1110.79 613.837C1110.5 613.526 1110.08 613.371 1109.54 613.371Z" fill="#FCFCFC"/>
<path d="M547.597 783.454H542.534V786.882H548.476V789H539.897V776.203H548.458V778.339H542.534V781.389H547.597V783.454ZM552.237 779.49L552.316 780.554C552.99 779.728 553.901 779.314 555.05 779.314C556.274 779.314 557.115 779.798 557.572 780.765C558.24 779.798 559.192 779.314 560.429 779.314C561.46 779.314 562.228 779.616 562.731 780.22C563.235 780.817 563.487 781.72 563.487 782.927V789H560.938V782.936C560.938 782.396 560.833 782.004 560.622 781.758C560.411 781.506 560.039 781.38 559.506 781.38C558.744 781.38 558.217 781.743 557.924 782.47L557.933 789H555.393V782.944C555.393 782.394 555.284 781.995 555.067 781.749C554.851 781.503 554.481 781.38 553.96 781.38C553.239 781.38 552.718 781.679 552.396 782.276V789H549.855V779.49H552.237ZM570.958 789C570.841 788.771 570.756 788.487 570.703 788.147C570.088 788.833 569.288 789.176 568.304 789.176C567.372 789.176 566.599 788.906 565.983 788.367C565.374 787.828 565.069 787.148 565.069 786.328C565.069 785.32 565.441 784.547 566.186 784.008C566.936 783.469 568.017 783.196 569.429 783.19H570.598V782.646C570.598 782.206 570.483 781.854 570.255 781.591C570.032 781.327 569.678 781.195 569.191 781.195C568.764 781.195 568.427 781.298 568.181 781.503C567.94 781.708 567.82 781.989 567.82 782.347H565.28C565.28 781.796 565.45 781.286 565.79 780.817C566.13 780.349 566.61 779.982 567.231 779.719C567.853 779.449 568.55 779.314 569.323 779.314C570.495 779.314 571.424 779.61 572.109 780.202C572.801 780.788 573.146 781.614 573.146 782.681V786.803C573.152 787.705 573.278 788.388 573.524 788.851V789H570.958ZM568.857 787.233C569.232 787.233 569.578 787.151 569.895 786.987C570.211 786.817 570.445 786.592 570.598 786.311V784.676H569.648C568.377 784.676 567.7 785.115 567.618 785.994L567.609 786.144C567.609 786.46 567.721 786.721 567.943 786.926C568.166 787.131 568.471 787.233 568.857 787.233ZM577.778 789H575.229V779.49H577.778V789ZM575.08 777.029C575.08 776.648 575.206 776.335 575.458 776.089C575.716 775.843 576.064 775.72 576.504 775.72C576.938 775.72 577.283 775.843 577.541 776.089C577.799 776.335 577.928 776.648 577.928 777.029C577.928 777.416 577.796 777.732 577.532 777.979C577.274 778.225 576.932 778.348 576.504 778.348C576.076 778.348 575.73 778.225 575.467 777.979C575.209 777.732 575.08 777.416 575.08 777.029ZM582.56 789H580.011V775.5H582.56V789ZM584.783 787.752C584.783 787.348 584.918 787.02 585.188 786.768C585.463 786.516 585.806 786.39 586.216 786.39C586.632 786.39 586.975 786.516 587.244 786.768C587.52 787.02 587.657 787.348 587.657 787.752C587.657 788.15 587.522 788.476 587.253 788.728C586.983 788.974 586.638 789.097 586.216 789.097C585.8 789.097 585.457 788.974 585.188 788.728C584.918 788.476 584.783 788.15 584.783 787.752ZM584.783 780.554C584.783 780.149 584.918 779.821 585.188 779.569C585.463 779.317 585.806 779.191 586.216 779.191C586.632 779.191 586.975 779.317 587.244 779.569C587.52 779.821 587.657 780.149 587.657 780.554C587.657 780.952 587.522 781.277 587.253 781.529C586.983 781.775 586.638 781.898 586.216 781.898C585.8 781.898 585.457 781.775 585.188 781.529C584.918 781.277 584.783 780.952 584.783 780.554ZM599.733 789C599.616 788.771 599.531 788.487 599.479 788.147C598.863 788.833 598.063 789.176 597.079 789.176C596.147 789.176 595.374 788.906 594.759 788.367C594.149 787.828 593.845 787.148 593.845 786.328C593.845 785.32 594.217 784.547 594.961 784.008C595.711 783.469 596.792 783.196 598.204 783.19H599.373V782.646C599.373 782.206 599.259 781.854 599.03 781.591C598.808 781.327 598.453 781.195 597.967 781.195C597.539 781.195 597.202 781.298 596.956 781.503C596.716 781.708 596.596 781.989 596.596 782.347H594.056C594.056 781.796 594.226 781.286 594.565 780.817C594.905 780.349 595.386 779.982 596.007 779.719C596.628 779.449 597.325 779.314 598.099 779.314C599.271 779.314 600.199 779.61 600.885 780.202C601.576 780.788 601.922 781.614 601.922 782.681V786.803C601.928 787.705 602.054 788.388 602.3 788.851V789H599.733ZM597.633 787.233C598.008 787.233 598.354 787.151 598.67 786.987C598.986 786.817 599.221 786.592 599.373 786.311V784.676H598.424C597.152 784.676 596.476 785.115 596.394 785.994L596.385 786.144C596.385 786.46 596.496 786.721 596.719 786.926C596.941 787.131 597.246 787.233 597.633 787.233ZM603.478 784.175C603.478 782.692 603.809 781.512 604.471 780.633C605.139 779.754 606.05 779.314 607.204 779.314C608.13 779.314 608.895 779.66 609.498 780.352V775.5H612.047V789H609.753L609.63 787.989C608.997 788.78 608.183 789.176 607.187 789.176C606.067 789.176 605.168 788.736 604.488 787.857C603.814 786.973 603.478 785.745 603.478 784.175ZM606.018 784.359C606.018 785.25 606.173 785.933 606.483 786.407C606.794 786.882 607.245 787.119 607.837 787.119C608.622 787.119 609.176 786.788 609.498 786.126V782.373C609.182 781.711 608.634 781.38 607.854 781.38C606.63 781.38 606.018 782.373 606.018 784.359ZM616.397 779.49L616.477 780.554C617.15 779.728 618.062 779.314 619.21 779.314C620.435 779.314 621.275 779.798 621.732 780.765C622.4 779.798 623.353 779.314 624.589 779.314C625.62 779.314 626.388 779.616 626.892 780.22C627.396 780.817 627.647 781.72 627.647 782.927V789H625.099V782.936C625.099 782.396 624.993 782.004 624.782 781.758C624.571 781.506 624.199 781.38 623.666 781.38C622.904 781.38 622.377 781.743 622.084 782.47L622.093 789H619.553V782.944C619.553 782.394 619.444 781.995 619.228 781.749C619.011 781.503 618.642 781.38 618.12 781.38C617.399 781.38 616.878 781.679 616.556 782.276V789H614.016V779.49H616.397ZM644.004 784.289C643.939 785.789 643.567 786.981 642.888 787.866C642.214 788.745 641.306 789.185 640.163 789.185C639.659 789.185 639.223 789.076 638.854 788.859C638.49 788.643 638.215 788.332 638.027 787.928C637.441 788.748 636.677 789.158 635.733 789.158C634.878 789.158 634.216 788.798 633.747 788.077C633.278 787.356 633.103 786.404 633.22 785.221C633.325 784.254 633.568 783.396 633.949 782.646C634.336 781.89 634.822 781.31 635.408 780.905C635.994 780.501 636.627 780.299 637.307 780.299C638.145 780.299 638.859 780.492 639.451 780.879L640.005 781.257L639.557 786.337C639.498 786.8 639.548 787.154 639.706 787.4C639.87 787.646 640.128 787.77 640.479 787.77C641.019 787.77 641.47 787.456 641.833 786.829C642.196 786.196 642.396 785.37 642.431 784.351C642.53 782.306 642.117 780.735 641.191 779.64C640.271 778.538 638.906 777.987 637.096 777.987C635.965 777.987 634.957 778.274 634.072 778.849C633.188 779.423 632.49 780.24 631.98 781.301C631.471 782.355 631.184 783.565 631.119 784.931C631.025 787.005 631.441 788.607 632.367 789.738C633.293 790.875 634.679 791.443 636.524 791.443C637.011 791.443 637.521 791.388 638.054 791.276C638.587 791.171 639.047 791.027 639.434 790.846L639.768 792.199C639.41 792.434 638.927 792.621 638.317 792.762C637.714 792.908 637.104 792.981 636.489 792.981C634.942 792.981 633.624 792.668 632.534 792.041C631.444 791.42 630.63 790.5 630.091 789.281C629.558 788.068 629.326 786.618 629.396 784.931C629.467 783.313 629.836 781.863 630.504 780.58C631.172 779.297 632.08 778.307 633.229 777.609C634.383 776.906 635.684 776.555 637.131 776.555C638.602 776.555 639.867 776.871 640.928 777.504C641.988 778.131 642.782 779.03 643.31 780.202C643.837 781.374 644.068 782.736 644.004 784.289ZM635.171 785.221C635.106 785.994 635.174 786.583 635.373 786.987C635.572 787.386 635.895 787.585 636.34 787.585C636.627 787.585 636.899 787.459 637.157 787.207C637.415 786.955 637.629 786.592 637.799 786.117L638.168 781.96C637.939 781.884 637.705 781.846 637.465 781.846C636.791 781.846 636.267 782.133 635.892 782.707C635.522 783.281 635.282 784.119 635.171 785.221ZM651.237 789C651.12 788.771 651.035 788.487 650.982 788.147C650.367 788.833 649.567 789.176 648.583 789.176C647.651 789.176 646.878 788.906 646.263 788.367C645.653 787.828 645.349 787.148 645.349 786.328C645.349 785.32 645.721 784.547 646.465 784.008C647.215 783.469 648.296 783.196 649.708 783.19H650.877V782.646C650.877 782.206 650.763 781.854 650.534 781.591C650.312 781.327 649.957 781.195 649.471 781.195C649.043 781.195 648.706 781.298 648.46 781.503C648.22 781.708 648.1 781.989 648.1 782.347H645.56C645.56 781.796 645.729 781.286 646.069 780.817C646.409 780.349 646.89 779.982 647.511 779.719C648.132 779.449 648.829 779.314 649.603 779.314C650.774 779.314 651.703 779.61 652.389 780.202C653.08 780.788 653.426 781.614 653.426 782.681V786.803C653.432 787.705 653.558 788.388 653.804 788.851V789H651.237ZM649.137 787.233C649.512 787.233 649.857 787.151 650.174 786.987C650.49 786.817 650.725 786.592 650.877 786.311V784.676H649.928C648.656 784.676 647.979 785.115 647.897 785.994L647.889 786.144C647.889 786.46 648 786.721 648.223 786.926C648.445 787.131 648.75 787.233 649.137 787.233ZM657.759 779.49L657.838 780.554C658.512 779.728 659.423 779.314 660.571 779.314C661.796 779.314 662.637 779.798 663.094 780.765C663.762 779.798 664.714 779.314 665.95 779.314C666.981 779.314 667.749 779.616 668.253 780.22C668.757 780.817 669.009 781.72 669.009 782.927V789H666.46V782.936C666.46 782.396 666.354 782.004 666.144 781.758C665.933 781.506 665.561 781.38 665.027 781.38C664.266 781.38 663.738 781.743 663.445 782.47L663.454 789H660.914V782.944C660.914 782.394 660.806 781.995 660.589 781.749C660.372 781.503 660.003 781.38 659.481 781.38C658.761 781.38 658.239 781.679 657.917 782.276V789H655.377V779.49H657.759ZM676.479 789C676.362 788.771 676.277 788.487 676.225 788.147C675.609 788.833 674.81 789.176 673.825 789.176C672.894 789.176 672.12 788.906 671.505 788.367C670.896 787.828 670.591 787.148 670.591 786.328C670.591 785.32 670.963 784.547 671.707 784.008C672.457 783.469 673.538 783.196 674.95 783.19H676.119V782.646C676.119 782.206 676.005 781.854 675.776 781.591C675.554 781.327 675.199 781.195 674.713 781.195C674.285 781.195 673.948 781.298 673.702 781.503C673.462 781.708 673.342 781.989 673.342 782.347H670.802C670.802 781.796 670.972 781.286 671.312 780.817C671.651 780.349 672.132 779.982 672.753 779.719C673.374 779.449 674.071 779.314 674.845 779.314C676.017 779.314 676.945 779.61 677.631 780.202C678.322 780.788 678.668 781.614 678.668 782.681V786.803C678.674 787.705 678.8 788.388 679.046 788.851V789H676.479ZM674.379 787.233C674.754 787.233 675.1 787.151 675.416 786.987C675.732 786.817 675.967 786.592 676.119 786.311V784.676H675.17C673.898 784.676 673.222 785.115 673.14 785.994L673.131 786.144C673.131 786.46 673.242 786.721 673.465 786.926C673.688 787.131 673.992 787.233 674.379 787.233ZM683.3 789H680.751V775.5H683.3V789ZM690.551 786.372C690.551 786.062 690.396 785.818 690.085 785.643C689.78 785.461 689.288 785.3 688.608 785.159C686.347 784.685 685.216 783.724 685.216 782.276C685.216 781.433 685.564 780.729 686.262 780.167C686.965 779.599 687.882 779.314 689.013 779.314C690.22 779.314 691.184 779.599 691.904 780.167C692.631 780.735 692.994 781.474 692.994 782.382H690.454C690.454 782.019 690.337 781.72 690.103 781.485C689.868 781.245 689.502 781.125 689.004 781.125C688.576 781.125 688.245 781.222 688.011 781.415C687.776 781.608 687.659 781.854 687.659 782.153C687.659 782.435 687.791 782.663 688.055 782.839C688.324 783.009 688.775 783.158 689.408 783.287C690.041 783.41 690.574 783.551 691.008 783.709C692.35 784.201 693.021 785.054 693.021 786.267C693.021 787.134 692.648 787.837 691.904 788.376C691.16 788.909 690.199 789.176 689.021 789.176C688.225 789.176 687.516 789.035 686.895 788.754C686.279 788.467 685.796 788.077 685.444 787.585C685.093 787.087 684.917 786.551 684.917 785.977H687.325C687.349 786.428 687.516 786.773 687.826 787.014C688.137 787.254 688.553 787.374 689.074 787.374C689.561 787.374 689.927 787.283 690.173 787.102C690.425 786.914 690.551 786.671 690.551 786.372ZM694.269 784.157C694.269 783.214 694.45 782.373 694.813 781.635C695.177 780.896 695.698 780.325 696.378 779.921C697.063 779.517 697.857 779.314 698.76 779.314C700.043 779.314 701.089 779.707 701.897 780.492C702.712 781.277 703.166 782.344 703.26 783.691L703.277 784.342C703.277 785.801 702.87 786.973 702.056 787.857C701.241 788.736 700.148 789.176 698.777 789.176C697.406 789.176 696.311 788.736 695.49 787.857C694.676 786.979 694.269 785.783 694.269 784.271V784.157ZM696.809 784.342C696.809 785.244 696.979 785.936 697.318 786.416C697.658 786.891 698.145 787.128 698.777 787.128C699.393 787.128 699.873 786.894 700.219 786.425C700.564 785.95 700.737 785.194 700.737 784.157C700.737 783.272 700.564 782.587 700.219 782.101C699.873 781.614 699.387 781.371 698.76 781.371C698.139 781.371 697.658 781.614 697.318 782.101C696.979 782.581 696.809 783.328 696.809 784.342ZM707.522 789H704.974V775.5H707.522V789ZM715.318 788.033C714.691 788.795 713.824 789.176 712.717 789.176C711.697 789.176 710.918 788.883 710.379 788.297C709.846 787.711 709.573 786.853 709.562 785.722V779.49H712.102V785.634C712.102 786.624 712.553 787.119 713.455 787.119C714.316 787.119 714.908 786.82 715.23 786.223V779.49H717.779V789H715.389L715.318 788.033ZM722.736 777.152V779.49H724.362V781.354H722.736V786.1C722.736 786.451 722.804 786.703 722.938 786.855C723.073 787.008 723.331 787.084 723.712 787.084C723.993 787.084 724.242 787.063 724.459 787.022V788.947C723.961 789.1 723.448 789.176 722.921 789.176C721.14 789.176 720.231 788.276 720.196 786.478V781.354H718.808V779.49H720.196V777.152H722.736ZM728.458 789H725.909V779.49H728.458V789ZM725.76 777.029C725.76 776.648 725.886 776.335 726.138 776.089C726.396 775.843 726.744 775.72 727.184 775.72C727.617 775.72 727.963 775.843 728.221 776.089C728.479 776.335 728.607 776.648 728.607 777.029C728.607 777.416 728.476 777.732 728.212 777.979C727.954 778.225 727.611 778.348 727.184 778.348C726.756 778.348 726.41 778.225 726.146 777.979C725.889 777.732 725.76 777.416 725.76 777.029ZM730.163 784.157C730.163 783.214 730.345 782.373 730.708 781.635C731.071 780.896 731.593 780.325 732.272 779.921C732.958 779.517 733.752 779.314 734.654 779.314C735.938 779.314 736.983 779.707 737.792 780.492C738.606 781.277 739.061 782.344 739.154 783.691L739.172 784.342C739.172 785.801 738.765 786.973 737.95 787.857C737.136 788.736 736.043 789.176 734.672 789.176C733.301 789.176 732.205 788.736 731.385 787.857C730.57 786.979 730.163 785.783 730.163 784.271V784.157ZM732.703 784.342C732.703 785.244 732.873 785.936 733.213 786.416C733.553 786.891 734.039 787.128 734.672 787.128C735.287 787.128 735.768 786.894 736.113 786.425C736.459 785.95 736.632 785.194 736.632 784.157C736.632 783.272 736.459 782.587 736.113 782.101C735.768 781.614 735.281 781.371 734.654 781.371C734.033 781.371 733.553 781.614 733.213 782.101C732.873 782.581 732.703 783.328 732.703 784.342ZM743.074 779.49L743.153 780.589C743.833 779.739 744.744 779.314 745.887 779.314C746.895 779.314 747.645 779.61 748.137 780.202C748.629 780.794 748.881 781.679 748.893 782.856V789H746.353V782.918C746.353 782.379 746.235 781.989 746.001 781.749C745.767 781.503 745.377 781.38 744.832 781.38C744.117 781.38 743.581 781.685 743.224 782.294V789H740.684V779.49H743.074ZM750.958 787.752C750.958 787.348 751.093 787.02 751.362 786.768C751.638 786.516 751.98 786.39 752.391 786.39C752.807 786.39 753.149 786.516 753.419 786.768C753.694 787.02 753.832 787.348 753.832 787.752C753.832 788.15 753.697 788.476 753.428 788.728C753.158 788.974 752.812 789.097 752.391 789.097C751.975 789.097 751.632 788.974 751.362 788.728C751.093 788.476 750.958 788.15 750.958 787.752ZM760.02 787.128C760.488 787.128 760.869 786.999 761.162 786.741C761.455 786.483 761.607 786.141 761.619 785.713H764.001C763.995 786.357 763.819 786.949 763.474 787.488C763.128 788.021 762.653 788.438 762.05 788.736C761.452 789.029 760.79 789.176 760.063 789.176C758.704 789.176 757.632 788.745 756.847 787.884C756.062 787.017 755.669 785.821 755.669 784.298V784.131C755.669 782.666 756.059 781.497 756.838 780.624C757.617 779.751 758.687 779.314 760.046 779.314C761.235 779.314 762.188 779.654 762.902 780.334C763.623 781.008 763.989 781.907 764.001 783.032H761.619C761.607 782.54 761.455 782.142 761.162 781.837C760.869 781.526 760.482 781.371 760.002 781.371C759.41 781.371 758.962 781.588 758.657 782.021C758.358 782.449 758.209 783.146 758.209 784.113V784.377C758.209 785.355 758.358 786.059 758.657 786.486C758.956 786.914 759.41 787.128 760.02 787.128ZM765.056 784.157C765.056 783.214 765.237 782.373 765.601 781.635C765.964 780.896 766.485 780.325 767.165 779.921C767.851 779.517 768.645 779.314 769.547 779.314C770.83 779.314 771.876 779.707 772.685 780.492C773.499 781.277 773.953 782.344 774.047 783.691L774.064 784.342C774.064 785.801 773.657 786.973 772.843 787.857C772.028 788.736 770.936 789.176 769.564 789.176C768.193 789.176 767.098 788.736 766.277 787.857C765.463 786.979 765.056 785.783 765.056 784.271V784.157ZM767.596 784.342C767.596 785.244 767.766 785.936 768.105 786.416C768.445 786.891 768.932 787.128 769.564 787.128C770.18 787.128 770.66 786.894 771.006 786.425C771.352 785.95 771.524 785.194 771.524 784.157C771.524 783.272 771.352 782.587 771.006 782.101C770.66 781.614 770.174 781.371 769.547 781.371C768.926 781.371 768.445 781.614 768.105 782.101C767.766 782.581 767.596 783.328 767.596 784.342ZM778.011 779.49L778.09 780.554C778.764 779.728 779.675 779.314 780.823 779.314C782.048 779.314 782.889 779.798 783.346 780.765C784.014 779.798 784.966 779.314 786.202 779.314C787.233 779.314 788.001 779.616 788.505 780.22C789.009 780.817 789.261 781.72 789.261 782.927V789H786.712V782.936C786.712 782.396 786.606 782.004 786.396 781.758C786.185 781.506 785.812 781.38 785.279 781.38C784.518 781.38 783.99 781.743 783.697 782.47L783.706 789H781.166V782.944C781.166 782.394 781.058 781.995 780.841 781.749C780.624 781.503 780.255 781.38 779.733 781.38C779.013 781.38 778.491 781.679 778.169 782.276V789H775.629V779.49H778.011Z" fill="#FCFCFC"/>
<path d="M763.195 600V592.354H761.78V590.49H763.195V590.051C763.207 588.855 763.573 587.936 764.294 587.291C765.021 586.641 766.043 586.315 767.361 586.315C768.152 586.315 769.113 586.488 770.244 586.834L769.875 588.935C769.301 588.765 768.855 588.656 768.539 588.609C768.223 588.557 767.883 588.53 767.52 588.53C766.336 588.53 765.744 589.055 765.744 590.104V590.49H767.616V592.354H765.744V600H763.195ZM771.431 600H768.882V590.49H771.431V600ZM776.212 600H773.663V586.5H776.212V600ZM780.993 600H778.444V586.5H780.993V600ZM788.271 600V592.354H786.855V590.49H788.271V589.682C788.271 588.615 788.575 587.789 789.185 587.203C789.8 586.611 790.658 586.315 791.76 586.315C792.111 586.315 792.542 586.374 793.052 586.491L793.025 588.46C792.814 588.407 792.557 588.381 792.252 588.381C791.297 588.381 790.819 588.829 790.819 589.726V590.49H792.709V592.354H790.819V600H788.271ZM793.632 595.157C793.632 594.214 793.813 593.373 794.177 592.635C794.54 591.896 795.062 591.325 795.741 590.921C796.427 590.517 797.221 590.314 798.123 590.314C799.406 590.314 800.452 590.707 801.261 591.492C802.075 592.277 802.529 593.344 802.623 594.691L802.641 595.342C802.641 596.801 802.233 597.973 801.419 598.857C800.604 599.736 799.512 600.176 798.141 600.176C796.77 600.176 795.674 599.736 794.854 598.857C794.039 597.979 793.632 596.783 793.632 595.271V595.157ZM796.172 595.342C796.172 596.244 796.342 596.936 796.682 597.416C797.021 597.891 797.508 598.128 798.141 598.128C798.756 598.128 799.236 597.894 799.582 597.425C799.928 596.95 800.101 596.194 800.101 595.157C800.101 594.272 799.928 593.587 799.582 593.101C799.236 592.614 798.75 592.371 798.123 592.371C797.502 592.371 797.021 592.614 796.682 593.101C796.342 593.581 796.172 594.328 796.172 595.342ZM809.549 592.872C809.203 592.825 808.898 592.802 808.635 592.802C807.674 592.802 807.044 593.127 806.745 593.777V600H804.205V590.49H806.604L806.675 591.624C807.185 590.751 807.891 590.314 808.793 590.314C809.074 590.314 809.338 590.353 809.584 590.429L809.549 592.872ZM813.161 590.49L813.24 591.554C813.914 590.728 814.825 590.314 815.974 590.314C817.198 590.314 818.039 590.798 818.496 591.765C819.164 590.798 820.116 590.314 821.353 590.314C822.384 590.314 823.151 590.616 823.655 591.22C824.159 591.817 824.411 592.72 824.411 593.927V600H821.862V593.936C821.862 593.396 821.757 593.004 821.546 592.758C821.335 592.506 820.963 592.38 820.43 592.38C819.668 592.38 819.141 592.743 818.848 593.47L818.856 600H816.316V593.944C816.316 593.394 816.208 592.995 815.991 592.749C815.774 592.503 815.405 592.38 814.884 592.38C814.163 592.38 813.642 592.679 813.319 593.276V600H810.779V590.49H813.161ZM753 613.872C752.654 613.825 752.35 613.802 752.086 613.802C751.125 613.802 750.495 614.127 750.196 614.777V621H747.656V611.49H750.056L750.126 612.624C750.636 611.751 751.342 611.314 752.244 611.314C752.525 611.314 752.789 611.353 753.035 611.429L753 613.872ZM758.432 621.176C757.037 621.176 755.9 620.748 755.021 619.893C754.148 619.037 753.712 617.897 753.712 616.474V616.228C753.712 615.272 753.896 614.42 754.266 613.67C754.635 612.914 755.156 612.334 755.83 611.93C756.51 611.52 757.283 611.314 758.15 611.314C759.451 611.314 760.474 611.725 761.218 612.545C761.968 613.365 762.343 614.528 762.343 616.034V617.071H756.287C756.369 617.692 756.615 618.19 757.025 618.565C757.441 618.94 757.966 619.128 758.599 619.128C759.577 619.128 760.342 618.773 760.893 618.064L762.141 619.462C761.76 620.001 761.244 620.423 760.594 620.728C759.943 621.026 759.223 621.176 758.432 621.176ZM758.142 613.371C757.638 613.371 757.228 613.541 756.911 613.881C756.601 614.221 756.401 614.707 756.313 615.34H759.847V615.138C759.835 614.575 759.683 614.142 759.39 613.837C759.097 613.526 758.681 613.371 758.142 613.371ZM763.424 616.175C763.424 614.716 763.77 613.541 764.461 612.65C765.158 611.76 766.096 611.314 767.273 611.314C768.316 611.314 769.128 611.672 769.708 612.387L769.813 611.49H772.116V620.684C772.116 621.516 771.926 622.239 771.545 622.854C771.17 623.47 770.64 623.938 769.954 624.261C769.269 624.583 768.466 624.744 767.546 624.744C766.849 624.744 766.169 624.604 765.507 624.322C764.845 624.047 764.344 623.689 764.004 623.25L765.129 621.703C765.762 622.412 766.529 622.767 767.432 622.767C768.105 622.767 768.63 622.585 769.005 622.222C769.38 621.864 769.567 621.354 769.567 620.692V620.183C768.981 620.845 768.211 621.176 767.256 621.176C766.113 621.176 765.188 620.73 764.479 619.84C763.775 618.943 763.424 617.757 763.424 616.28V616.175ZM765.964 616.359C765.964 617.221 766.137 617.897 766.482 618.39C766.828 618.876 767.303 619.119 767.906 619.119C768.68 619.119 769.233 618.829 769.567 618.249V614.25C769.228 613.67 768.68 613.38 767.924 613.38C767.314 613.38 766.834 613.629 766.482 614.127C766.137 614.625 765.964 615.369 765.964 616.359ZM776.757 621H774.208V611.49H776.757V621ZM774.059 609.029C774.059 608.648 774.185 608.335 774.437 608.089C774.694 607.843 775.043 607.72 775.482 607.72C775.916 607.72 776.262 607.843 776.52 608.089C776.777 608.335 776.906 608.648 776.906 609.029C776.906 609.416 776.774 609.732 776.511 609.979C776.253 610.225 775.91 610.348 775.482 610.348C775.055 610.348 774.709 610.225 774.445 609.979C774.188 609.732 774.059 609.416 774.059 609.029ZM784.008 618.372C784.008 618.062 783.853 617.818 783.542 617.643C783.237 617.461 782.745 617.3 782.065 617.159C779.804 616.685 778.673 615.724 778.673 614.276C778.673 613.433 779.021 612.729 779.719 612.167C780.422 611.599 781.339 611.314 782.47 611.314C783.677 611.314 784.641 611.599 785.361 612.167C786.088 612.735 786.451 613.474 786.451 614.382H783.911C783.911 614.019 783.794 613.72 783.56 613.485C783.325 613.245 782.959 613.125 782.461 613.125C782.033 613.125 781.702 613.222 781.468 613.415C781.233 613.608 781.116 613.854 781.116 614.153C781.116 614.435 781.248 614.663 781.512 614.839C781.781 615.009 782.232 615.158 782.865 615.287C783.498 615.41 784.031 615.551 784.465 615.709C785.807 616.201 786.478 617.054 786.478 618.267C786.478 619.134 786.105 619.837 785.361 620.376C784.617 620.909 783.656 621.176 782.479 621.176C781.682 621.176 780.973 621.035 780.352 620.754C779.736 620.467 779.253 620.077 778.901 619.585C778.55 619.087 778.374 618.551 778.374 617.977H780.782C780.806 618.428 780.973 618.773 781.283 619.014C781.594 619.254 782.01 619.374 782.531 619.374C783.018 619.374 783.384 619.283 783.63 619.102C783.882 618.914 784.008 618.671 784.008 618.372ZM791.162 609.152V611.49H792.788V613.354H791.162V618.1C791.162 618.451 791.229 618.703 791.364 618.855C791.499 619.008 791.757 619.084 792.138 619.084C792.419 619.084 792.668 619.063 792.885 619.022V620.947C792.387 621.1 791.874 621.176 791.347 621.176C789.565 621.176 788.657 620.276 788.622 618.478V613.354H787.233V611.49H788.622V609.152H791.162ZM799.547 613.872C799.201 613.825 798.896 613.802 798.633 613.802C797.672 613.802 797.042 614.127 796.743 614.777V621H794.203V611.49H796.603L796.673 612.624C797.183 611.751 797.889 611.314 798.791 611.314C799.072 611.314 799.336 611.353 799.582 611.429L799.547 613.872ZM806.024 621C805.907 620.771 805.822 620.487 805.77 620.147C805.154 620.833 804.354 621.176 803.37 621.176C802.438 621.176 801.665 620.906 801.05 620.367C800.44 619.828 800.136 619.148 800.136 618.328C800.136 617.32 800.508 616.547 801.252 616.008C802.002 615.469 803.083 615.196 804.495 615.19H805.664V614.646C805.664 614.206 805.55 613.854 805.321 613.591C805.099 613.327 804.744 613.195 804.258 613.195C803.83 613.195 803.493 613.298 803.247 613.503C803.007 613.708 802.887 613.989 802.887 614.347H800.347C800.347 613.796 800.517 613.286 800.856 612.817C801.196 612.349 801.677 611.982 802.298 611.719C802.919 611.449 803.616 611.314 804.39 611.314C805.562 611.314 806.49 611.61 807.176 612.202C807.867 612.788 808.213 613.614 808.213 614.681V618.803C808.219 619.705 808.345 620.388 808.591 620.851V621H806.024ZM803.924 619.233C804.299 619.233 804.645 619.151 804.961 618.987C805.277 618.817 805.512 618.592 805.664 618.311V616.676H804.715C803.443 616.676 802.767 617.115 802.685 617.994L802.676 618.144C802.676 618.46 802.787 618.721 803.01 618.926C803.232 619.131 803.537 619.233 803.924 619.233ZM813.205 609.152V611.49H814.831V613.354H813.205V618.1C813.205 618.451 813.272 618.703 813.407 618.855C813.542 619.008 813.8 619.084 814.181 619.084C814.462 619.084 814.711 619.063 814.928 619.022V620.947C814.43 621.1 813.917 621.176 813.39 621.176C811.608 621.176 810.7 620.276 810.665 618.478V613.354H809.276V611.49H810.665V609.152H813.205ZM818.927 621H816.378V611.49H818.927V621ZM816.229 609.029C816.229 608.648 816.354 608.335 816.606 608.089C816.864 607.843 817.213 607.72 817.652 607.72C818.086 607.72 818.432 607.843 818.689 608.089C818.947 608.335 819.076 608.648 819.076 609.029C819.076 609.416 818.944 609.732 818.681 609.979C818.423 610.225 818.08 610.348 817.652 610.348C817.225 610.348 816.879 610.225 816.615 609.979C816.357 609.732 816.229 609.416 816.229 609.029ZM820.632 616.157C820.632 615.214 820.813 614.373 821.177 613.635C821.54 612.896 822.062 612.325 822.741 611.921C823.427 611.517 824.221 611.314 825.123 611.314C826.406 611.314 827.452 611.707 828.261 612.492C829.075 613.277 829.529 614.344 829.623 615.691L829.641 616.342C829.641 617.801 829.233 618.973 828.419 619.857C827.604 620.736 826.512 621.176 825.141 621.176C823.77 621.176 822.674 620.736 821.854 619.857C821.039 618.979 820.632 617.783 820.632 616.271V616.157ZM823.172 616.342C823.172 617.244 823.342 617.936 823.682 618.416C824.021 618.891 824.508 619.128 825.141 619.128C825.756 619.128 826.236 618.894 826.582 618.425C826.928 617.95 827.101 617.194 827.101 616.157C827.101 615.272 826.928 614.587 826.582 614.101C826.236 613.614 825.75 613.371 825.123 613.371C824.502 613.371 824.021 613.614 823.682 614.101C823.342 614.581 823.172 615.328 823.172 616.342ZM833.543 611.49L833.622 612.589C834.302 611.739 835.213 611.314 836.355 611.314C837.363 611.314 838.113 611.61 838.605 612.202C839.098 612.794 839.35 613.679 839.361 614.856V621H836.821V614.918C836.821 614.379 836.704 613.989 836.47 613.749C836.235 613.503 835.846 613.38 835.301 613.38C834.586 613.38 834.05 613.685 833.692 614.294V621H831.152V611.49H833.543Z" fill="#FCFCFC"/>
<path d="M454.188 588.49L454.268 589.589C454.947 588.739 455.858 588.314 457.001 588.314C458.009 588.314 458.759 588.61 459.251 589.202C459.743 589.794 459.995 590.679 460.007 591.856V598H457.467V591.918C457.467 591.379 457.35 590.989 457.115 590.749C456.881 590.503 456.491 590.38 455.946 590.38C455.231 590.38 454.695 590.685 454.338 591.294V598H451.798V588.49H454.188ZM461.545 593.157C461.545 592.214 461.727 591.373 462.09 590.635C462.453 589.896 462.975 589.325 463.654 588.921C464.34 588.517 465.134 588.314 466.036 588.314C467.319 588.314 468.365 588.707 469.174 589.492C469.988 590.277 470.442 591.344 470.536 592.691L470.554 593.342C470.554 594.801 470.146 595.973 469.332 596.857C468.518 597.736 467.425 598.176 466.054 598.176C464.683 598.176 463.587 597.736 462.767 596.857C461.952 595.979 461.545 594.783 461.545 593.271V593.157ZM464.085 593.342C464.085 594.244 464.255 594.936 464.595 595.416C464.935 595.891 465.421 596.128 466.054 596.128C466.669 596.128 467.149 595.894 467.495 595.425C467.841 594.95 468.014 594.194 468.014 593.157C468.014 592.272 467.841 591.587 467.495 591.101C467.149 590.614 466.663 590.371 466.036 590.371C465.415 590.371 464.935 590.614 464.595 591.101C464.255 591.581 464.085 592.328 464.085 593.342ZM475.159 586.152V588.49H476.785V590.354H475.159V595.1C475.159 595.451 475.227 595.703 475.361 595.855C475.496 596.008 475.754 596.084 476.135 596.084C476.416 596.084 476.665 596.063 476.882 596.022V597.947C476.384 598.1 475.871 598.176 475.344 598.176C473.562 598.176 472.654 597.276 472.619 595.478V590.354H471.23V588.49H472.619V586.152H475.159ZM480.881 598H478.332V588.49H480.881V598ZM478.183 586.029C478.183 585.648 478.309 585.335 478.561 585.089C478.818 584.843 479.167 584.72 479.606 584.72C480.04 584.72 480.386 584.843 480.644 585.089C480.901 585.335 481.03 585.648 481.03 586.029C481.03 586.416 480.898 586.732 480.635 586.979C480.377 587.225 480.034 587.348 479.606 587.348C479.179 587.348 478.833 587.225 478.569 586.979C478.312 586.732 478.183 586.416 478.183 586.029ZM483.597 598V590.354H482.182V588.49H483.597V588.051C483.608 586.855 483.975 585.936 484.695 585.291C485.422 584.641 486.444 584.315 487.763 584.315C488.554 584.315 489.515 584.488 490.646 584.834L490.276 586.935C489.702 586.765 489.257 586.656 488.94 586.609C488.624 586.557 488.284 586.53 487.921 586.53C486.737 586.53 486.146 587.055 486.146 588.104V588.49H488.018V590.354H486.146V598H483.597ZM491.832 598H489.283V588.49H491.832V598ZM497.888 596.128C498.356 596.128 498.737 595.999 499.03 595.741C499.323 595.483 499.476 595.141 499.487 594.713H501.869C501.863 595.357 501.688 595.949 501.342 596.488C500.996 597.021 500.521 597.438 499.918 597.736C499.32 598.029 498.658 598.176 497.932 598.176C496.572 598.176 495.5 597.745 494.715 596.884C493.93 596.017 493.537 594.821 493.537 593.298V593.131C493.537 591.666 493.927 590.497 494.706 589.624C495.485 588.751 496.555 588.314 497.914 588.314C499.104 588.314 500.056 588.654 500.771 589.334C501.491 590.008 501.857 590.907 501.869 592.032H499.487C499.476 591.54 499.323 591.142 499.03 590.837C498.737 590.526 498.351 590.371 497.87 590.371C497.278 590.371 496.83 590.588 496.525 591.021C496.227 591.449 496.077 592.146 496.077 593.113V593.377C496.077 594.355 496.227 595.059 496.525 595.486C496.824 595.914 497.278 596.128 497.888 596.128ZM508.83 598C508.713 597.771 508.628 597.487 508.575 597.147C507.96 597.833 507.16 598.176 506.176 598.176C505.244 598.176 504.471 597.906 503.855 597.367C503.246 596.828 502.941 596.148 502.941 595.328C502.941 594.32 503.313 593.547 504.058 593.008C504.808 592.469 505.889 592.196 507.301 592.19H508.47V591.646C508.47 591.206 508.355 590.854 508.127 590.591C507.904 590.327 507.55 590.195 507.063 590.195C506.636 590.195 506.299 590.298 506.053 590.503C505.812 590.708 505.692 590.989 505.692 591.347H503.152C503.152 590.796 503.322 590.286 503.662 589.817C504.002 589.349 504.482 588.982 505.104 588.719C505.725 588.449 506.422 588.314 507.195 588.314C508.367 588.314 509.296 588.61 509.981 589.202C510.673 589.788 511.019 590.614 511.019 591.681V595.803C511.024 596.705 511.15 597.388 511.396 597.851V598H508.83ZM506.729 596.233C507.104 596.233 507.45 596.151 507.767 595.987C508.083 595.817 508.317 595.592 508.47 595.311V593.676H507.521C506.249 593.676 505.572 594.115 505.49 594.994L505.481 595.144C505.481 595.46 505.593 595.721 505.815 595.926C506.038 596.131 506.343 596.233 506.729 596.233ZM516.011 586.152V588.49H517.637V590.354H516.011V595.1C516.011 595.451 516.078 595.703 516.213 595.855C516.348 596.008 516.605 596.084 516.986 596.084C517.268 596.084 517.517 596.063 517.733 596.022V597.947C517.235 598.1 516.723 598.176 516.195 598.176C514.414 598.176 513.506 597.276 513.471 595.478V590.354H512.082V588.49H513.471V586.152H516.011ZM521.732 598H519.184V588.49H521.732V598ZM519.034 586.029C519.034 585.648 519.16 585.335 519.412 585.089C519.67 584.843 520.019 584.72 520.458 584.72C520.892 584.72 521.237 584.843 521.495 585.089C521.753 585.335 521.882 585.648 521.882 586.029C521.882 586.416 521.75 586.732 521.486 586.979C521.229 587.225 520.886 587.348 520.458 587.348C520.03 587.348 519.685 587.225 519.421 586.979C519.163 586.732 519.034 586.416 519.034 586.029ZM523.438 593.157C523.438 592.214 523.619 591.373 523.982 590.635C524.346 589.896 524.867 589.325 525.547 588.921C526.232 588.517 527.026 588.314 527.929 588.314C529.212 588.314 530.258 588.707 531.066 589.492C531.881 590.277 532.335 591.344 532.429 592.691L532.446 593.342C532.446 594.801 532.039 595.973 531.225 596.857C530.41 597.736 529.317 598.176 527.946 598.176C526.575 598.176 525.479 597.736 524.659 596.857C523.845 595.979 523.438 594.783 523.438 593.271V593.157ZM525.978 593.342C525.978 594.244 526.147 594.936 526.487 595.416C526.827 595.891 527.313 596.128 527.946 596.128C528.562 596.128 529.042 595.894 529.388 595.425C529.733 594.95 529.906 594.194 529.906 593.157C529.906 592.272 529.733 591.587 529.388 591.101C529.042 590.614 528.556 590.371 527.929 590.371C527.308 590.371 526.827 590.614 526.487 591.101C526.147 591.581 525.978 592.328 525.978 593.342ZM536.349 588.49L536.428 589.589C537.107 588.739 538.019 588.314 539.161 588.314C540.169 588.314 540.919 588.61 541.411 589.202C541.903 589.794 542.155 590.679 542.167 591.856V598H539.627V591.918C539.627 591.379 539.51 590.989 539.275 590.749C539.041 590.503 538.651 590.38 538.106 590.38C537.392 590.38 536.855 590.685 536.498 591.294V598H533.958V588.49H536.349ZM420.878 616.372C420.878 616.062 420.723 615.818 420.412 615.643C420.107 615.461 419.615 615.3 418.936 615.159C416.674 614.685 415.543 613.724 415.543 612.276C415.543 611.433 415.892 610.729 416.589 610.167C417.292 609.599 418.209 609.314 419.34 609.314C420.547 609.314 421.511 609.599 422.231 610.167C422.958 610.735 423.321 611.474 423.321 612.382H420.781C420.781 612.019 420.664 611.72 420.43 611.485C420.195 611.245 419.829 611.125 419.331 611.125C418.903 611.125 418.572 611.222 418.338 611.415C418.104 611.608 417.986 611.854 417.986 612.153C417.986 612.435 418.118 612.663 418.382 612.839C418.651 613.009 419.103 613.158 419.735 613.287C420.368 613.41 420.901 613.551 421.335 613.709C422.677 614.201 423.348 615.054 423.348 616.267C423.348 617.134 422.976 617.837 422.231 618.376C421.487 618.909 420.526 619.176 419.349 619.176C418.552 619.176 417.843 619.035 417.222 618.754C416.606 618.467 416.123 618.077 415.771 617.585C415.42 617.087 415.244 616.551 415.244 615.977H417.652C417.676 616.428 417.843 616.773 418.153 617.014C418.464 617.254 418.88 617.374 419.401 617.374C419.888 617.374 420.254 617.283 420.5 617.102C420.752 616.914 420.878 616.671 420.878 616.372ZM430.687 618.033C430.06 618.795 429.192 619.176 428.085 619.176C427.065 619.176 426.286 618.883 425.747 618.297C425.214 617.711 424.941 616.853 424.93 615.722V609.49H427.47V615.634C427.47 616.624 427.921 617.119 428.823 617.119C429.685 617.119 430.276 616.82 430.599 616.223V609.49H433.147V619H430.757L430.687 618.033ZM439.019 617.128C439.487 617.128 439.868 616.999 440.161 616.741C440.454 616.483 440.606 616.141 440.618 615.713H443C442.994 616.357 442.818 616.949 442.473 617.488C442.127 618.021 441.652 618.438 441.049 618.736C440.451 619.029 439.789 619.176 439.062 619.176C437.703 619.176 436.631 618.745 435.846 617.884C435.061 617.017 434.668 615.821 434.668 614.298V614.131C434.668 612.666 435.058 611.497 435.837 610.624C436.616 609.751 437.686 609.314 439.045 609.314C440.234 609.314 441.187 609.654 441.901 610.334C442.622 611.008 442.988 611.907 443 613.032H440.618C440.606 612.54 440.454 612.142 440.161 611.837C439.868 611.526 439.481 611.371 439.001 611.371C438.409 611.371 437.961 611.588 437.656 612.021C437.357 612.449 437.208 613.146 437.208 614.113V614.377C437.208 615.355 437.357 616.059 437.656 616.486C437.955 616.914 438.409 617.128 439.019 617.128ZM448.405 617.128C448.874 617.128 449.255 616.999 449.548 616.741C449.841 616.483 449.993 616.141 450.005 615.713H452.387C452.381 616.357 452.205 616.949 451.859 617.488C451.514 618.021 451.039 618.438 450.436 618.736C449.838 619.029 449.176 619.176 448.449 619.176C447.09 619.176 446.018 618.745 445.232 617.884C444.447 617.017 444.055 615.821 444.055 614.298V614.131C444.055 612.666 444.444 611.497 445.224 610.624C446.003 609.751 447.072 609.314 448.432 609.314C449.621 609.314 450.573 609.654 451.288 610.334C452.009 611.008 452.375 611.907 452.387 613.032H450.005C449.993 612.54 449.841 612.142 449.548 611.837C449.255 611.526 448.868 611.371 448.388 611.371C447.796 611.371 447.348 611.588 447.043 612.021C446.744 612.449 446.595 613.146 446.595 614.113V614.377C446.595 615.355 446.744 616.059 447.043 616.486C447.342 616.914 447.796 617.128 448.405 617.128ZM458.214 619.176C456.819 619.176 455.683 618.748 454.804 617.893C453.931 617.037 453.494 615.897 453.494 614.474V614.228C453.494 613.272 453.679 612.42 454.048 611.67C454.417 610.914 454.938 610.334 455.612 609.93C456.292 609.52 457.065 609.314 457.933 609.314C459.233 609.314 460.256 609.725 461 610.545C461.75 611.365 462.125 612.528 462.125 614.034V615.071H456.069C456.151 615.692 456.397 616.19 456.808 616.565C457.224 616.94 457.748 617.128 458.381 617.128C459.359 617.128 460.124 616.773 460.675 616.064L461.923 617.462C461.542 618.001 461.026 618.423 460.376 618.728C459.726 619.026 459.005 619.176 458.214 619.176ZM457.924 611.371C457.42 611.371 457.01 611.541 456.693 611.881C456.383 612.221 456.184 612.707 456.096 613.34H459.629V613.138C459.617 612.575 459.465 612.142 459.172 611.837C458.879 611.526 458.463 611.371 457.924 611.371ZM468.726 616.372C468.726 616.062 468.57 615.818 468.26 615.643C467.955 615.461 467.463 615.3 466.783 615.159C464.521 614.685 463.391 613.724 463.391 612.276C463.391 611.433 463.739 610.729 464.437 610.167C465.14 609.599 466.057 609.314 467.188 609.314C468.395 609.314 469.358 609.599 470.079 610.167C470.806 610.735 471.169 611.474 471.169 612.382H468.629C468.629 612.019 468.512 611.72 468.277 611.485C468.043 611.245 467.677 611.125 467.179 611.125C466.751 611.125 466.42 611.222 466.186 611.415C465.951 611.608 465.834 611.854 465.834 612.153C465.834 612.435 465.966 612.663 466.229 612.839C466.499 613.009 466.95 613.158 467.583 613.287C468.216 613.41 468.749 613.551 469.183 613.709C470.524 614.201 471.195 615.054 471.195 616.267C471.195 617.134 470.823 617.837 470.079 618.376C469.335 618.909 468.374 619.176 467.196 619.176C466.399 619.176 465.69 619.035 465.069 618.754C464.454 618.467 463.971 618.077 463.619 617.585C463.268 617.087 463.092 616.551 463.092 615.977H465.5C465.523 616.428 465.69 616.773 466.001 617.014C466.312 617.254 466.728 617.374 467.249 617.374C467.735 617.374 468.102 617.283 468.348 617.102C468.6 616.914 468.726 616.671 468.726 616.372ZM477.989 616.372C477.989 616.062 477.834 615.818 477.523 615.643C477.219 615.461 476.727 615.3 476.047 615.159C473.785 614.685 472.654 613.724 472.654 612.276C472.654 611.433 473.003 610.729 473.7 610.167C474.403 609.599 475.32 609.314 476.451 609.314C477.658 609.314 478.622 609.599 479.343 610.167C480.069 610.735 480.433 611.474 480.433 612.382H477.893C477.893 612.019 477.775 611.72 477.541 611.485C477.307 611.245 476.94 611.125 476.442 611.125C476.015 611.125 475.684 611.222 475.449 611.415C475.215 611.608 475.098 611.854 475.098 612.153C475.098 612.435 475.229 612.663 475.493 612.839C475.763 613.009 476.214 613.158 476.847 613.287C477.479 613.41 478.013 613.551 478.446 613.709C479.788 614.201 480.459 615.054 480.459 616.267C480.459 617.134 480.087 617.837 479.343 618.376C478.599 618.909 477.638 619.176 476.46 619.176C475.663 619.176 474.954 619.035 474.333 618.754C473.718 618.467 473.234 618.077 472.883 617.585C472.531 617.087 472.355 616.551 472.355 615.977H474.764C474.787 616.428 474.954 616.773 475.265 617.014C475.575 617.254 475.991 617.374 476.513 617.374C476.999 617.374 477.365 617.283 477.611 617.102C477.863 616.914 477.989 616.671 477.989 616.372ZM491.929 611.872C491.583 611.825 491.278 611.802 491.015 611.802C490.054 611.802 489.424 612.127 489.125 612.777V619H486.585V609.49H488.984L489.055 610.624C489.564 609.751 490.271 609.314 491.173 609.314C491.454 609.314 491.718 609.353 491.964 609.429L491.929 611.872ZM497.36 619.176C495.966 619.176 494.829 618.748 493.95 617.893C493.077 617.037 492.641 615.897 492.641 614.474V614.228C492.641 613.272 492.825 612.42 493.194 611.67C493.563 610.914 494.085 610.334 494.759 609.93C495.438 609.52 496.212 609.314 497.079 609.314C498.38 609.314 499.402 609.725 500.146 610.545C500.896 611.365 501.271 612.528 501.271 614.034V615.071H495.216C495.298 615.692 495.544 616.19 495.954 616.565C496.37 616.94 496.895 617.128 497.527 617.128C498.506 617.128 499.271 616.773 499.821 616.064L501.069 617.462C500.688 618.001 500.173 618.423 499.522 618.728C498.872 619.026 498.151 619.176 497.36 619.176ZM497.07 611.371C496.566 611.371 496.156 611.541 495.84 611.881C495.529 612.221 495.33 612.707 495.242 613.34H498.775V613.138C498.764 612.575 498.611 612.142 498.318 611.837C498.025 611.526 497.609 611.371 497.07 611.371ZM502.353 614.175C502.353 612.716 502.698 611.541 503.39 610.65C504.087 609.76 505.024 609.314 506.202 609.314C507.245 609.314 508.057 609.672 508.637 610.387L508.742 609.49H511.045V618.684C511.045 619.516 510.854 620.239 510.474 620.854C510.099 621.47 509.568 621.938 508.883 622.261C508.197 622.583 507.395 622.744 506.475 622.744C505.777 622.744 505.098 622.604 504.436 622.322C503.773 622.047 503.272 621.689 502.933 621.25L504.058 619.703C504.69 620.412 505.458 620.767 506.36 620.767C507.034 620.767 507.559 620.585 507.934 620.222C508.309 619.864 508.496 619.354 508.496 618.692V618.183C507.91 618.845 507.14 619.176 506.185 619.176C505.042 619.176 504.116 618.73 503.407 617.84C502.704 616.943 502.353 615.757 502.353 614.28V614.175ZM504.893 614.359C504.893 615.221 505.065 615.897 505.411 616.39C505.757 616.876 506.231 617.119 506.835 617.119C507.608 617.119 508.162 616.829 508.496 616.249V612.25C508.156 611.67 507.608 611.38 506.853 611.38C506.243 611.38 505.763 611.629 505.411 612.127C505.065 612.625 504.893 613.369 504.893 614.359ZM515.686 619H513.137V609.49H515.686V619ZM512.987 607.029C512.987 606.648 513.113 606.335 513.365 606.089C513.623 605.843 513.972 605.72 514.411 605.72C514.845 605.72 515.19 605.843 515.448 606.089C515.706 606.335 515.835 606.648 515.835 607.029C515.835 607.416 515.703 607.732 515.439 607.979C515.182 608.225 514.839 608.348 514.411 608.348C513.983 608.348 513.638 608.225 513.374 607.979C513.116 607.732 512.987 607.416 512.987 607.029ZM522.937 616.372C522.937 616.062 522.781 615.818 522.471 615.643C522.166 615.461 521.674 615.3 520.994 615.159C518.732 614.685 517.602 613.724 517.602 612.276C517.602 611.433 517.95 610.729 518.647 610.167C519.351 609.599 520.268 609.314 521.398 609.314C522.605 609.314 523.569 609.599 524.29 610.167C525.017 610.735 525.38 611.474 525.38 612.382H522.84C522.84 612.019 522.723 611.72 522.488 611.485C522.254 611.245 521.888 611.125 521.39 611.125C520.962 611.125 520.631 611.222 520.396 611.415C520.162 611.608 520.045 611.854 520.045 612.153C520.045 612.435 520.177 612.663 520.44 612.839C520.71 613.009 521.161 613.158 521.794 613.287C522.427 613.41 522.96 613.551 523.394 613.709C524.735 614.201 525.406 615.054 525.406 616.267C525.406 617.134 525.034 617.837 524.29 618.376C523.546 618.909 522.585 619.176 521.407 619.176C520.61 619.176 519.901 619.035 519.28 618.754C518.665 618.467 518.182 618.077 517.83 617.585C517.479 617.087 517.303 616.551 517.303 615.977H519.711C519.734 616.428 519.901 616.773 520.212 617.014C520.522 617.254 520.938 617.374 521.46 617.374C521.946 617.374 522.312 617.283 522.559 617.102C522.811 616.914 522.937 616.671 522.937 616.372ZM530.091 607.152V609.49H531.717V611.354H530.091V616.1C530.091 616.451 530.158 616.703 530.293 616.855C530.428 617.008 530.686 617.084 531.066 617.084C531.348 617.084 531.597 617.063 531.813 617.022V618.947C531.315 619.1 530.803 619.176 530.275 619.176C528.494 619.176 527.586 618.276 527.551 616.478V611.354H526.162V609.49H527.551V607.152H530.091ZM538.476 611.872C538.13 611.825 537.825 611.802 537.562 611.802C536.601 611.802 535.971 612.127 535.672 612.777V619H533.132V609.49H535.531L535.602 610.624C536.111 609.751 536.817 609.314 537.72 609.314C538.001 609.314 538.265 609.353 538.511 609.429L538.476 611.872ZM544.953 619C544.836 618.771 544.751 618.487 544.698 618.147C544.083 618.833 543.283 619.176 542.299 619.176C541.367 619.176 540.594 618.906 539.979 618.367C539.369 617.828 539.064 617.148 539.064 616.328C539.064 615.32 539.437 614.547 540.181 614.008C540.931 613.469 542.012 613.196 543.424 613.19H544.593V612.646C544.593 612.206 544.479 611.854 544.25 611.591C544.027 611.327 543.673 611.195 543.187 611.195C542.759 611.195 542.422 611.298 542.176 611.503C541.936 611.708 541.815 611.989 541.815 612.347H539.275C539.275 611.796 539.445 611.286 539.785 610.817C540.125 610.349 540.605 609.982 541.227 609.719C541.848 609.449 542.545 609.314 543.318 609.314C544.49 609.314 545.419 609.61 546.104 610.202C546.796 610.788 547.142 611.614 547.142 612.681V616.803C547.147 617.705 547.273 618.388 547.52 618.851V619H544.953ZM542.853 617.233C543.228 617.233 543.573 617.151 543.89 616.987C544.206 616.817 544.44 616.592 544.593 616.311V614.676H543.644C542.372 614.676 541.695 615.115 541.613 615.994L541.604 616.144C541.604 616.46 541.716 616.721 541.938 616.926C542.161 617.131 542.466 617.233 542.853 617.233ZM552.134 607.152V609.49H553.76V611.354H552.134V616.1C552.134 616.451 552.201 616.703 552.336 616.855C552.471 617.008 552.729 617.084 553.109 617.084C553.391 617.084 553.64 617.063 553.856 617.022V618.947C553.358 619.1 552.846 619.176 552.318 619.176C550.537 619.176 549.629 618.276 549.594 616.478V611.354H548.205V609.49H549.594V607.152H552.134ZM557.855 619H555.307V609.49H557.855V619ZM555.157 607.029C555.157 606.648 555.283 606.335 555.535 606.089C555.793 605.843 556.142 605.72 556.581 605.72C557.015 605.72 557.36 605.843 557.618 606.089C557.876 606.335 558.005 606.648 558.005 607.029C558.005 607.416 557.873 607.732 557.609 607.979C557.352 608.225 557.009 608.348 556.581 608.348C556.153 608.348 555.808 608.225 555.544 607.979C555.286 607.732 555.157 607.416 555.157 607.029ZM559.561 614.157C559.561 613.214 559.742 612.373 560.105 611.635C560.469 610.896 560.99 610.325 561.67 609.921C562.355 609.517 563.149 609.314 564.052 609.314C565.335 609.314 566.381 609.707 567.189 610.492C568.004 611.277 568.458 612.344 568.552 613.691L568.569 614.342C568.569 615.801 568.162 616.973 567.348 617.857C566.533 618.736 565.44 619.176 564.069 619.176C562.698 619.176 561.603 618.736 560.782 617.857C559.968 616.979 559.561 615.783 559.561 614.271V614.157ZM562.101 614.342C562.101 615.244 562.271 615.936 562.61 616.416C562.95 616.891 563.437 617.128 564.069 617.128C564.685 617.128 565.165 616.894 565.511 616.425C565.856 615.95 566.029 615.194 566.029 614.157C566.029 613.272 565.856 612.587 565.511 612.101C565.165 611.614 564.679 611.371 564.052 611.371C563.431 611.371 562.95 611.614 562.61 612.101C562.271 612.581 562.101 613.328 562.101 614.342ZM572.472 609.49L572.551 610.589C573.23 609.739 574.142 609.314 575.284 609.314C576.292 609.314 577.042 609.61 577.534 610.202C578.026 610.794 578.278 611.679 578.29 612.856V619H575.75V612.918C575.75 612.379 575.633 611.989 575.398 611.749C575.164 611.503 574.774 611.38 574.229 611.38C573.515 611.38 572.979 611.685 572.621 612.294V619H570.081V609.49H572.472Z" fill="#FCFCFC"/>
<path d="M138.932 596.546L140.18 590.49H142.632L140.206 600H138.079L136.277 594.015L134.476 600H132.357L129.932 590.49H132.384L133.623 596.537L135.363 590.49H137.2L138.932 596.546ZM149.408 600C149.291 599.771 149.206 599.487 149.153 599.147C148.538 599.833 147.738 600.176 146.754 600.176C145.822 600.176 145.049 599.906 144.434 599.367C143.824 598.828 143.52 598.148 143.52 597.328C143.52 596.32 143.892 595.547 144.636 595.008C145.386 594.469 146.467 594.196 147.879 594.19H149.048V593.646C149.048 593.206 148.934 592.854 148.705 592.591C148.482 592.327 148.128 592.195 147.642 592.195C147.214 592.195 146.877 592.298 146.631 592.503C146.391 592.708 146.271 592.989 146.271 593.347H143.73C143.73 592.796 143.9 592.286 144.24 591.817C144.58 591.349 145.061 590.982 145.682 590.719C146.303 590.449 147 590.314 147.773 590.314C148.945 590.314 149.874 590.61 150.56 591.202C151.251 591.788 151.597 592.614 151.597 593.681V597.803C151.603 598.705 151.729 599.388 151.975 599.851V600H149.408ZM147.308 598.233C147.683 598.233 148.028 598.151 148.345 597.987C148.661 597.817 148.896 597.592 149.048 597.311V595.676H148.099C146.827 595.676 146.15 596.115 146.068 596.994L146.06 597.144C146.06 597.46 146.171 597.721 146.394 597.926C146.616 598.131 146.921 598.233 147.308 598.233ZM156.229 600H153.68V590.49H156.229V600ZM153.53 588.029C153.53 587.648 153.656 587.335 153.908 587.089C154.166 586.843 154.515 586.72 154.954 586.72C155.388 586.72 155.733 586.843 155.991 587.089C156.249 587.335 156.378 587.648 156.378 588.029C156.378 588.416 156.246 588.732 155.982 588.979C155.725 589.225 155.382 589.348 154.954 589.348C154.526 589.348 154.181 589.225 153.917 588.979C153.659 588.732 153.53 588.416 153.53 588.029ZM161.37 588.152V590.49H162.996V592.354H161.37V597.1C161.37 597.451 161.438 597.703 161.572 597.855C161.707 598.008 161.965 598.084 162.346 598.084C162.627 598.084 162.876 598.063 163.093 598.022V599.947C162.595 600.1 162.082 600.176 161.555 600.176C159.773 600.176 158.865 599.276 158.83 597.478V592.354H157.441V590.49H158.83V588.152H161.37ZM169.588 600V592.354H168.173V590.49H169.588V589.682C169.588 588.615 169.893 587.789 170.502 587.203C171.117 586.611 171.976 586.315 173.077 586.315C173.429 586.315 173.859 586.374 174.369 586.491L174.343 588.46C174.132 588.407 173.874 588.381 173.569 588.381C172.614 588.381 172.137 588.829 172.137 589.726V590.49H174.026V592.354H172.137V600H169.588ZM174.949 595.157C174.949 594.214 175.131 593.373 175.494 592.635C175.857 591.896 176.379 591.325 177.059 590.921C177.744 590.517 178.538 590.314 179.44 590.314C180.724 590.314 181.77 590.707 182.578 591.492C183.393 592.277 183.847 593.344 183.94 594.691L183.958 595.342C183.958 596.801 183.551 597.973 182.736 598.857C181.922 599.736 180.829 600.176 179.458 600.176C178.087 600.176 176.991 599.736 176.171 598.857C175.356 597.979 174.949 596.783 174.949 595.271V595.157ZM177.489 595.342C177.489 596.244 177.659 596.936 177.999 597.416C178.339 597.891 178.825 598.128 179.458 598.128C180.073 598.128 180.554 597.894 180.899 597.425C181.245 596.95 181.418 596.194 181.418 595.157C181.418 594.272 181.245 593.587 180.899 593.101C180.554 592.614 180.067 592.371 179.44 592.371C178.819 592.371 178.339 592.614 177.999 593.101C177.659 593.581 177.489 594.328 177.489 595.342ZM190.866 592.872C190.521 592.825 190.216 592.802 189.952 592.802C188.991 592.802 188.361 593.127 188.062 593.777V600H185.522V590.49H187.922L187.992 591.624C188.502 590.751 189.208 590.314 190.11 590.314C190.392 590.314 190.655 590.353 190.901 590.429L190.866 592.872ZM199.62 588.152V590.49H201.246V592.354H199.62V597.1C199.62 597.451 199.688 597.703 199.822 597.855C199.957 598.008 200.215 598.084 200.596 598.084C200.877 598.084 201.126 598.063 201.343 598.022V599.947C200.845 600.1 200.332 600.176 199.805 600.176C198.023 600.176 197.115 599.276 197.08 597.478V592.354H195.691V590.49H197.08V588.152H199.62ZM205.14 591.527C205.813 590.719 206.66 590.314 207.68 590.314C209.742 590.314 210.788 591.513 210.817 593.909V600H208.277V593.979C208.277 593.435 208.16 593.033 207.926 592.775C207.691 592.512 207.302 592.38 206.757 592.38C206.013 592.38 205.474 592.667 205.14 593.241V600H202.6V586.5H205.14V591.527ZM217.11 600.176C215.716 600.176 214.579 599.748 213.7 598.893C212.827 598.037 212.391 596.897 212.391 595.474V595.228C212.391 594.272 212.575 593.42 212.944 592.67C213.313 591.914 213.835 591.334 214.509 590.93C215.188 590.52 215.962 590.314 216.829 590.314C218.13 590.314 219.152 590.725 219.896 591.545C220.646 592.365 221.021 593.528 221.021 595.034V596.071H214.966C215.048 596.692 215.294 597.19 215.704 597.565C216.12 597.94 216.645 598.128 217.277 598.128C218.256 598.128 219.021 597.773 219.571 597.064L220.819 598.462C220.438 599.001 219.923 599.423 219.272 599.728C218.622 600.026 217.901 600.176 217.11 600.176ZM216.82 592.371C216.316 592.371 215.906 592.541 215.59 592.881C215.279 593.221 215.08 593.707 214.992 594.34H218.525V594.138C218.514 593.575 218.361 593.142 218.068 592.837C217.775 592.526 217.359 592.371 216.82 592.371ZM232.298 592.872C231.952 592.825 231.647 592.802 231.384 592.802C230.423 592.802 229.793 593.127 229.494 593.777V600H226.954V590.49H229.354L229.424 591.624C229.934 590.751 230.64 590.314 231.542 590.314C231.823 590.314 232.087 590.353 232.333 590.429L232.298 592.872ZM237.729 600.176C236.335 600.176 235.198 599.748 234.319 598.893C233.446 598.037 233.01 596.897 233.01 595.474V595.228C233.01 594.272 233.194 593.42 233.563 592.67C233.933 591.914 234.454 591.334 235.128 590.93C235.808 590.52 236.581 590.314 237.448 590.314C238.749 590.314 239.771 590.725 240.516 591.545C241.266 592.365 241.641 593.528 241.641 595.034V596.071H235.585C235.667 596.692 235.913 597.19 236.323 597.565C236.739 597.94 237.264 598.128 237.896 598.128C238.875 598.128 239.64 597.773 240.19 597.064L241.438 598.462C241.058 599.001 240.542 599.423 239.892 599.728C239.241 600.026 238.521 600.176 237.729 600.176ZM237.439 592.371C236.936 592.371 236.525 592.541 236.209 592.881C235.898 593.221 235.699 593.707 235.611 594.34H239.145V594.138C239.133 593.575 238.98 593.142 238.688 592.837C238.395 592.526 237.979 592.371 237.439 592.371ZM248.241 597.372C248.241 597.062 248.086 596.818 247.775 596.643C247.471 596.461 246.979 596.3 246.299 596.159C244.037 595.685 242.906 594.724 242.906 593.276C242.906 592.433 243.255 591.729 243.952 591.167C244.655 590.599 245.572 590.314 246.703 590.314C247.91 590.314 248.874 590.599 249.595 591.167C250.321 591.735 250.685 592.474 250.685 593.382H248.145C248.145 593.019 248.027 592.72 247.793 592.485C247.559 592.245 247.192 592.125 246.694 592.125C246.267 592.125 245.936 592.222 245.701 592.415C245.467 592.608 245.35 592.854 245.35 593.153C245.35 593.435 245.481 593.663 245.745 593.839C246.015 594.009 246.466 594.158 247.099 594.287C247.731 594.41 248.265 594.551 248.698 594.709C250.04 595.201 250.711 596.054 250.711 597.267C250.711 598.134 250.339 598.837 249.595 599.376C248.851 599.909 247.89 600.176 246.712 600.176C245.915 600.176 245.206 600.035 244.585 599.754C243.97 599.467 243.486 599.077 243.135 598.585C242.783 598.087 242.607 597.551 242.607 596.977H245.016C245.039 597.428 245.206 597.773 245.517 598.014C245.827 598.254 246.243 598.374 246.765 598.374C247.251 598.374 247.617 598.283 247.863 598.102C248.115 597.914 248.241 597.671 248.241 597.372ZM258.05 599.033C257.423 599.795 256.556 600.176 255.448 600.176C254.429 600.176 253.649 599.883 253.11 599.297C252.577 598.711 252.305 597.853 252.293 596.722V590.49H254.833V596.634C254.833 597.624 255.284 598.119 256.187 598.119C257.048 598.119 257.64 597.82 257.962 597.223V590.49H260.511V600H258.12L258.05 599.033ZM265.107 600H262.559V586.5H265.107V600ZM270.249 588.152V590.49H271.875V592.354H270.249V597.1C270.249 597.451 270.316 597.703 270.451 597.855C270.586 598.008 270.844 598.084 271.225 598.084C271.506 598.084 271.755 598.063 271.972 598.022V599.947C271.474 600.1 270.961 600.176 270.434 600.176C268.652 600.176 267.744 599.276 267.709 597.478V592.354H266.32V590.49H267.709V588.152H270.249ZM151.245 608.071H149.997V622.02H151.245V623.979H147.448V606.111H151.245V608.071ZM160.245 615.454H155.183V618.882H161.124V621H152.546V608.203H161.106V610.339H155.183V613.389H160.245V615.454ZM164.842 611.49L164.921 612.589C165.601 611.739 166.512 611.314 167.654 611.314C168.662 611.314 169.412 611.61 169.904 612.202C170.396 612.794 170.648 613.679 170.66 614.856V621H168.12V614.918C168.12 614.379 168.003 613.989 167.769 613.749C167.534 613.503 167.145 613.38 166.6 613.38C165.885 613.38 165.349 613.685 164.991 614.294V621H162.451V611.49H164.842ZM172.198 616.175C172.198 614.692 172.529 613.512 173.191 612.633C173.859 611.754 174.771 611.314 175.925 611.314C176.851 611.314 177.615 611.66 178.219 612.352V607.5H180.768V621H178.474L178.351 619.989C177.718 620.78 176.903 621.176 175.907 621.176C174.788 621.176 173.889 620.736 173.209 619.857C172.535 618.973 172.198 617.745 172.198 616.175ZM174.738 616.359C174.738 617.25 174.894 617.933 175.204 618.407C175.515 618.882 175.966 619.119 176.558 619.119C177.343 619.119 177.896 618.788 178.219 618.126V614.373C177.902 613.711 177.354 613.38 176.575 613.38C175.351 613.38 174.738 614.373 174.738 616.359ZM195.779 616.333C195.779 617.798 195.445 618.973 194.777 619.857C194.115 620.736 193.219 621.176 192.088 621.176C191.127 621.176 190.351 620.842 189.759 620.174V624.656H187.219V611.49H189.574L189.662 612.422C190.277 611.684 191.08 611.314 192.07 611.314C193.242 611.314 194.153 611.748 194.804 612.615C195.454 613.482 195.779 614.678 195.779 616.201V616.333ZM193.239 616.148C193.239 615.264 193.081 614.581 192.765 614.101C192.454 613.62 192 613.38 191.402 613.38C190.605 613.38 190.058 613.685 189.759 614.294V618.188C190.069 618.814 190.623 619.128 191.42 619.128C192.633 619.128 193.239 618.135 193.239 616.148ZM202.705 613.872C202.359 613.825 202.055 613.802 201.791 613.802C200.83 613.802 200.2 614.127 199.901 614.777V621H197.361V611.49H199.761L199.831 612.624C200.341 611.751 201.047 611.314 201.949 611.314C202.23 611.314 202.494 611.353 202.74 611.429L202.705 613.872ZM203.224 616.157C203.224 615.214 203.405 614.373 203.769 613.635C204.132 612.896 204.653 612.325 205.333 611.921C206.019 611.517 206.812 611.314 207.715 611.314C208.998 611.314 210.044 611.707 210.853 612.492C211.667 613.277 212.121 614.344 212.215 615.691L212.232 616.342C212.232 617.801 211.825 618.973 211.011 619.857C210.196 620.736 209.104 621.176 207.732 621.176C206.361 621.176 205.266 620.736 204.445 619.857C203.631 618.979 203.224 617.783 203.224 616.271V616.157ZM205.764 616.342C205.764 617.244 205.934 617.936 206.273 618.416C206.613 618.891 207.1 619.128 207.732 619.128C208.348 619.128 208.828 618.894 209.174 618.425C209.52 617.95 209.692 617.194 209.692 616.157C209.692 615.272 209.52 614.587 209.174 614.101C208.828 613.614 208.342 613.371 207.715 613.371C207.094 613.371 206.613 613.614 206.273 614.101C205.934 614.581 205.764 615.328 205.764 616.342ZM217.752 619.128C218.221 619.128 218.602 618.999 218.895 618.741C219.188 618.483 219.34 618.141 219.352 617.713H221.733C221.728 618.357 221.552 618.949 221.206 619.488C220.86 620.021 220.386 620.438 219.782 620.736C219.185 621.029 218.522 621.176 217.796 621.176C216.437 621.176 215.364 620.745 214.579 619.884C213.794 619.017 213.401 617.821 213.401 616.298V616.131C213.401 614.666 213.791 613.497 214.57 612.624C215.35 611.751 216.419 611.314 217.778 611.314C218.968 611.314 219.92 611.654 220.635 612.334C221.355 613.008 221.722 613.907 221.733 615.032H219.352C219.34 614.54 219.188 614.142 218.895 613.837C218.602 613.526 218.215 613.371 217.734 613.371C217.143 613.371 216.694 613.588 216.39 614.021C216.091 614.449 215.941 615.146 215.941 616.113V616.377C215.941 617.355 216.091 618.059 216.39 618.486C216.688 618.914 217.143 619.128 217.752 619.128ZM227.139 619.128C227.607 619.128 227.988 618.999 228.281 618.741C228.574 618.483 228.727 618.141 228.738 617.713H231.12C231.114 618.357 230.938 618.949 230.593 619.488C230.247 620.021 229.772 620.438 229.169 620.736C228.571 621.029 227.909 621.176 227.183 621.176C225.823 621.176 224.751 620.745 223.966 619.884C223.181 619.017 222.788 617.821 222.788 616.298V616.131C222.788 614.666 223.178 613.497 223.957 612.624C224.736 611.751 225.806 611.314 227.165 611.314C228.354 611.314 229.307 611.654 230.021 612.334C230.742 613.008 231.108 613.907 231.12 615.032H228.738C228.727 614.54 228.574 614.142 228.281 613.837C227.988 613.526 227.602 613.371 227.121 613.371C226.529 613.371 226.081 613.588 225.776 614.021C225.478 614.449 225.328 615.146 225.328 616.113V616.377C225.328 617.355 225.478 618.059 225.776 618.486C226.075 618.914 226.529 619.128 227.139 619.128ZM236.947 621.176C235.553 621.176 234.416 620.748 233.537 619.893C232.664 619.037 232.228 617.897 232.228 616.474V616.228C232.228 615.272 232.412 614.42 232.781 613.67C233.15 612.914 233.672 612.334 234.346 611.93C235.025 611.52 235.799 611.314 236.666 611.314C237.967 611.314 238.989 611.725 239.733 612.545C240.483 613.365 240.858 614.528 240.858 616.034V617.071H234.803C234.885 617.692 235.131 618.19 235.541 618.565C235.957 618.94 236.481 619.128 237.114 619.128C238.093 619.128 238.857 618.773 239.408 618.064L240.656 619.462C240.275 620.001 239.76 620.423 239.109 620.728C238.459 621.026 237.738 621.176 236.947 621.176ZM236.657 613.371C236.153 613.371 235.743 613.541 235.427 613.881C235.116 614.221 234.917 614.707 234.829 615.34H238.362V615.138C238.351 614.575 238.198 614.142 237.905 613.837C237.612 613.526 237.196 613.371 236.657 613.371ZM247.459 618.372C247.459 618.062 247.304 617.818 246.993 617.643C246.688 617.461 246.196 617.3 245.517 617.159C243.255 616.685 242.124 615.724 242.124 614.276C242.124 613.433 242.473 612.729 243.17 612.167C243.873 611.599 244.79 611.314 245.921 611.314C247.128 611.314 248.092 611.599 248.812 612.167C249.539 612.735 249.902 613.474 249.902 614.382H247.362C247.362 614.019 247.245 613.72 247.011 613.485C246.776 613.245 246.41 613.125 245.912 613.125C245.484 613.125 245.153 613.222 244.919 613.415C244.685 613.608 244.567 613.854 244.567 614.153C244.567 614.435 244.699 614.663 244.963 614.839C245.232 615.009 245.684 615.158 246.316 615.287C246.949 615.41 247.482 615.551 247.916 615.709C249.258 616.201 249.929 617.054 249.929 618.267C249.929 619.134 249.557 619.837 248.812 620.376C248.068 620.909 247.107 621.176 245.93 621.176C245.133 621.176 244.424 621.035 243.803 620.754C243.188 620.467 242.704 620.077 242.353 619.585C242.001 619.087 241.825 618.551 241.825 617.977H244.233C244.257 618.428 244.424 618.773 244.734 619.014C245.045 619.254 245.461 619.374 245.982 619.374C246.469 619.374 246.835 619.283 247.081 619.102C247.333 618.914 247.459 618.671 247.459 618.372ZM250.711 606.111H254.508V623.979H250.711V622.02H251.968V608.071H250.711V606.111Z" fill="#FCFCFC"/>
<ellipse cx="1052.83" cy="-0.0448584" rx="793.017" ry="356.643" transform="rotate(21.925 1052.83 -0.0448584)" fill="#C4C4C4" fill-opacity="0.5"/>
</g>
<defs>
<filter id="filter0_d" x="979" y="569" width="210" height="79" filterUnits="userSpaceOnUse" color-interpolation-filters="sRGB">
<feFlood flood-opacity="0" result="BackgroundImageFix"/>
<feColorMatrix in="SourceAlpha" type="matrix" values="0 0 0 0 0 0 0 0 0 0 0 0 0 0 0 0 0 0 127 0"/>
<feOffset dy="4"/>
<feGaussianBlur stdDeviation="2"/>
<feColorMatrix type="matrix" values="0 0 0 0 0.4125 0 0 0 0 0.407344 0 0 0 0 0.407344 0 0 0 0.08 0"/>
<feBlend mode="normal" in2="BackgroundImageFix" result="effect1_dropShadow"/>
<feBlend mode="normal" in="SourceGraphic" in2="effect1_dropShadow" result="shape"/>
</filter>
<filter id="filter1_d" x="688" y="569" width="210" height="79" filterUnits="userSpaceOnUse" color-interpolation-filters="sRGB">
<feFlood flood-opacity="0" result="BackgroundImageFix"/>
<feColorMatrix in="SourceAlpha" type="matrix" values="0 0 0 0 0 0 0 0 0 0 0 0 0 0 0 0 0 0 127 0"/>
<feOffset dy="4"/>
<feGaussianBlur stdDeviation="2"/>
<feColorMatrix type="matrix" values="0 0 0 0 0.4125 0 0 0 0 0.407344 0 0 0 0 0.407344 0 0 0 0.08 0"/>
<feBlend mode="normal" in2="BackgroundImageFix" result="effect1_dropShadow"/>
<feBlend mode="normal" in="SourceGraphic" in2="effect1_dropShadow" result="shape"/>
</filter>
<filter id="filter2_d" x="392" y="568" width="210" height="79" filterUnits="userSpaceOnUse" color-interpolation-filters="sRGB">
<feFlood flood-opacity="0" result="BackgroundImageFix"/>
<feColorMatrix in="SourceAlpha" type="matrix" values="0 0 0 0 0 0 0 0 0 0 0 0 0 0 0 0 0 0 127 0"/>
<feOffset dy="4"/>
<feGaussianBlur stdDeviation="2"/>
<feColorMatrix type="matrix" values="0 0 0 0 0.4125 0 0 0 0 0.407344 0 0 0 0 0.407344 0 0 0 0.08 0"/>
<feBlend mode="normal" in2="BackgroundImageFix" result="effect1_dropShadow"/>
<feBlend mode="normal" in="SourceGraphic" in2="effect1_dropShadow" result="shape"/>
</filter>
<filter id="filter3_d" x="96" y="570" width="210" height="79" filterUnits="userSpaceOnUse" color-interpolation-filters="sRGB">
<feFlood flood-opacity="0" result="BackgroundImageFix"/>
<feColorMatrix in="SourceAlpha" type="matrix" values="0 0 0 0 0 0 0 0 0 0 0 0 0 0 0 0 0 0 127 0"/>
<feOffset dy="4"/>
<feGaussianBlur stdDeviation="2"/>
<feColorMatrix type="matrix" values="0 0 0 0 0.4125 0 0 0 0 0.407344 0 0 0 0 0.407344 0 0 0 0.08 0"/>
<feBlend mode="normal" in2="BackgroundImageFix" result="effect1_dropShadow"/>
<feBlend mode="normal" in="SourceGraphic" in2="effect1_dropShadow" result="shape"/>
</filter>
<filter id="filter4_d" x="387" y="766" width="516" height="42" filterUnits="userSpaceOnUse" color-interpolation-filters="sRGB">
<feFlood flood-opacity="0" result="BackgroundImageFix"/>
<feColorMatrix in="SourceAlpha" type="matrix" values="0 0 0 0 0 0 0 0 0 0 0 0 0 0 0 0 0 0 127 0"/>
<feOffset dy="4"/>
<feGaussianBlur stdDeviation="2"/>
<feColorMatrix type="matrix" values="0 0 0 0 0.4125 0 0 0 0 0.407344 0 0 0 0 0.407344 0 0 0 0.08 0"/>
<feBlend mode="normal" in2="BackgroundImageFix" result="effect1_dropShadow"/>
<feBlend mode="normal" in="SourceGraphic" in2="effect1_dropShadow" result="shape"/>
</filter>
<clipPath id="clip0">
<rect width="1200" height="800" fill="white"/>
</clipPath>
</defs>
</svg>
